<svg xmlns="http://www.w3.org/2000/svg" width="128" height="128" xmlns:v="https://vecta.io/nano"><defs><clipPath id="A"><path d="M1920 0v11288H0V0z"/></clipPath><clipPath id="B"><path d="M50 0c27.614 0 50 22.386 50 50s-22.386 50-50 50S0 77.614 0 50 22.386 0 50 0z"/></clipPath><clipPath id="C"><path d="M39.029 0l7.403 7.363-19.514 19.405a5.256 5.256 0 0 1-3.705 1.524 5.235 5.235 0 0 1-3.7-1.524L0 7.363 7.403 0l15.813 15.726z"/></clipPath><clipPath id="D"><path d="M21.047 0l7.402 7.363L12.636 23.09l15.81 15.724-7.4 7.36L1.535 26.769a5.186 5.186 0 0 1 0-7.363z"/></clipPath><clipPath id="E"><path d="M19.513 1.524a5.257 5.257 0 0 1 7.403 0l19.513 19.405-7.403 7.363-15.812-15.726L7.403 28.292 0 20.93z"/></clipPath><clipPath id="F"><path d="M7.403 0l19.513 19.405a5.181 5.181 0 0 1 0 7.363L7.403 46.178 0 38.817 15.813 23.09 0 7.363z"/></clipPath></defs><g clip-path="url(#A)" transform="matrix(1.28 0 0 1.28 -1850.88 -10205.44)"><g clip-path="url(#B)" transform="translate(1446 7973)" fill="#fff"><path d="M0 0h100v100H0z"/></g><g clip-path="url(#C)" transform="translate(1472.797 7991.213)"><path d="M0 0h46.432v28.292H0z"/></g><g clip-path="url(#D)" transform="translate(1499.514 7999.895)"><path d="M0 0h28.45v46.174H0z"/></g><g clip-path="url(#E)" transform="translate(1472.774 8026.497)"><path d="M0 0h46.429v28.292H0z"/></g><g clip-path="url(#F)" transform="translate(1464.037 7999.926)"><path d="M0 0h28.45v46.179H0z"/></g></g></svg>