<svg xmlns="http://www.w3.org/2000/svg" width="128" height="128" xmlns:v="https://vecta.io/nano"><circle cx="0" cy="90.51" r="64" transform="rotate(315)" fill="#e62058"/><g fill="#fff"><path d="M82.388 57.983l-32.794-.025c-8.94 0-16.376 7.069-16.609 16.158-.007.243.193.444.436.444l32.794.02v.005c8.94 0 16.376-7.069 16.609-16.158.007-.243-.193-.444-.436-.444zM99.01 33.088l-49.413-.025c-8.94 0-16.376 7.069-16.609 16.158-.007.243.193.444.436.444l49.413.02v.005c8.94 0 16.376-7.069 16.609-16.158.007-.243-.193-.444-.436-.444z"/><circle cx="41.296" cy="91.057" r="8.311"/></g></svg>