<svg xmlns="http://www.w3.org/2000/svg" width="244" height="51" fill="none" viewBox="0 0 244 51">
  <path fill="#fff" d="M88.131 19.264a7.066 7.066 0 0 1-2.945 2.79c-1.324.709-2.966 1.062-4.928 1.06H76.63v8.626h-5.856V7.713h9.48c1.918 0 3.538.33 4.861.992a6.828 6.828 0 0 1 2.978 2.738 7.96 7.96 0 0 1 .993 4.005 7.738 7.738 0 0 1-.955 3.816Zm-5.82-1.59c.547-.524.822-1.268.822-2.226 0-.957-.275-1.7-.823-2.225-.547-.524-1.379-.788-2.497-.788H76.63v6.026h3.183c1.118 0 1.95-.262 2.497-.787Zm24.782 9.823h-8.968l-1.438 4.243h-6.125l8.693-24.027h6.775l8.694 24.027h-6.193l-1.438-4.243Zm-1.508-4.518-2.977-8.798-2.928 8.798h5.905Zm33.269 8.761h-5.856l-9.789-14.822V31.74h-5.856V7.713h5.856l9.789 14.889V7.712h5.856V31.74Zm20.195-16.441a4.361 4.361 0 0 0-1.865-1.83 6.117 6.117 0 0 0-2.858-.635c-1.896 0-3.413.621-4.553 1.865-1.14 1.243-1.711 2.907-1.713 4.992 0 2.214.599 3.942 1.798 5.186 1.198 1.243 2.844 1.865 4.936 1.865a5.972 5.972 0 0 0 3.646-1.095 6.21 6.21 0 0 0 2.172-3.148h-7.416v-4.313h12.725v5.443a11.533 11.533 0 0 1-2.208 4.073 11.687 11.687 0 0 1-3.953 3.045 12.227 12.227 0 0 1-5.408 1.172 12.823 12.823 0 0 1-6.351-1.558 11.09 11.09 0 0 1-4.333-4.337 13.675 13.675 0 0 1 0-12.68 11.095 11.095 0 0 1 4.327-4.35 12.73 12.73 0 0 1 6.334-1.554c2.875 0 5.299.696 7.273 2.088a9.84 9.84 0 0 1 3.915 5.771h-6.468Zm15.281 15.106a11.78 11.78 0 0 1-4.483-4.392 12.943 12.943 0 0 1 0-12.682 11.813 11.813 0 0 1 4.483-4.392 13.044 13.044 0 0 1 12.427 0 11.538 11.538 0 0 1 4.447 4.392 13.11 13.11 0 0 1-.014 12.682 11.69 11.69 0 0 1-4.451 4.392 13.003 13.003 0 0 1-12.409 0Zm10.816-5.68c1.154-1.281 1.731-2.97 1.731-5.066 0-2.097-.577-3.791-1.731-5.083-1.149-1.269-2.684-1.902-4.603-1.9-1.918.001-3.464.629-4.638 1.882-1.151 1.255-1.727 2.956-1.727 5.1 0 2.146.576 3.84 1.727 5.084 1.154 1.265 2.7 1.897 4.638 1.897 1.939 0 3.473-.638 4.603-1.915Zm16.79 2.497h7.665v4.518H196.08V7.713h5.856v19.51Zm16.326-19.509V31.74h-5.856V7.713h5.856ZM244 31.74h-5.856l-9.791-14.822V31.74h-5.857V7.713h5.857l9.791 14.889V7.712H244V31.74Z"/>
  <path fill="#FFC800" d="M29.032 8.251 40.36.01l1.912 5.868-13.24 9.636V8.25Z"/>
  <path fill="#FFC800" d="m31.096 17.097 14.11-10.269L42.984.006 50.444 0l5.072 15.571-13.24 9.634-11.18-8.108Zm-2.07 1.578 13.217 9.592-13.211 9.719-.006-19.31Zm.009 22.397L39.81 33.23l2.462 7.555-13.24 9.636.003-9.35Z"/>
  <path fill="#E1AA00" d="M26.484 8.251 15.156.01l-1.913 5.868 13.241 9.636V8.25Z"/>
  <path fill="#E1AA00" d="M24.42 17.097 10.307 6.828 12.529.006 5.071 0 0 15.571l13.24 9.634 11.18-8.108Zm2.07 1.578-13.22 9.592 13.214 9.719.006-19.31Zm-.009 22.397L15.703 33.23l-2.46 7.555 13.241 9.636-.003-9.35Z"/>
  <path fill="#CFCFCF" d="M71.204 41.359c.28-.48.685-.873 1.172-1.14a3.407 3.407 0 0 1 3.384.083c.52.326.915.815 1.128 1.39h-1.233a1.64 1.64 0 0 0-.674-.737 1.99 1.99 0 0 0-1-.243 2.204 2.204 0 0 0-1.108.292 1.95 1.95 0 0 0-.758.803 2.82 2.82 0 0 0 0 2.43c.17.335.434.614.758.805a2.15 2.15 0 0 0 1.107.293 2.02 2.02 0 0 0 1.001-.243c.295-.172.53-.43.674-.738h1.233a2.755 2.755 0 0 1-1.128 1.385 3.288 3.288 0 0 1-1.78.486 3.22 3.22 0 0 1-1.61-.41 3.042 3.042 0 0 1-1.172-1.139 3.388 3.388 0 0 1 0-3.294l.006-.023Zm7.754 4.55a2.312 2.312 0 0 1-.893-.9 2.744 2.744 0 0 1-.322-1.346c-.009-.468.105-.93.33-1.341.213-.38.529-.692.911-.899a2.776 2.776 0 0 1 2.574 0 2.3 2.3 0 0 1 .91.899 2.849 2.849 0 0 1 0 2.682c-.22.384-.543.698-.934.905a2.665 2.665 0 0 1-1.3.319 2.523 2.523 0 0 1-1.276-.32Zm2.011-.761a1.43 1.43 0 0 0 .566-.569c.15-.282.225-.599.216-.919a1.866 1.866 0 0 0-.208-.913 1.393 1.393 0 0 0-.55-.563 1.514 1.514 0 0 0-1.464 0c-.23.131-.417.327-.536.563-.14.283-.209.597-.2.913-.027.45.12.894.41 1.239a1.358 1.358 0 0 0 1.031.436c.258.002.513-.063.738-.187h-.003Zm9.906-3.789c.31.162.563.413.729.72.184.356.275.753.264 1.154v2.928h-1.016v-2.773a1.438 1.438 0 0 0-.334-1.022 1.338 1.338 0 0 0-1.822 0c-.242.283-.364.65-.34 1.022v2.773h-1.015v-2.773a1.437 1.437 0 0 0-.334-1.022 1.338 1.338 0 0 0-1.821 0c-.243.283-.365.65-.34 1.022v2.773h-1.025v-4.972h1.025v.565a1.73 1.73 0 0 1 .641-.477 2.04 2.04 0 0 1 .826-.17c.37-.006.735.08 1.063.252.308.164.56.419.72.729.155-.305.4-.555.703-.715a2.05 2.05 0 0 1 1.025-.266c.365-.003.726.083 1.05.252Zm4.035-.018c.316-.159.665-.24 1.019-.234a2.252 2.252 0 0 1 2.026 1.215c.204.41.305.865.293 1.323.01.463-.09.922-.293 1.339a2.3 2.3 0 0 1-.843.916c-.353.216-.758.33-1.172.328A2.176 2.176 0 0 1 94.93 46a2.274 2.274 0 0 1-.72-.586v3.077h-1.025v-7.32h1.025v.73c.19-.235.429-.426.7-.56Zm2.093 1.417a1.464 1.464 0 0 0-.556-.565 1.466 1.466 0 0 0-2.05.586c-.145.27-.218.572-.213.878-.007.312.067.62.213.896a1.464 1.464 0 0 0 2.05.586 1.49 1.49 0 0 0 .556-.586c.146-.277.218-.586.211-.899a1.774 1.774 0 0 0-.21-.896Zm3.157 3.151a2.31 2.31 0 0 1-.893-.9 2.745 2.745 0 0 1-.322-1.346c-.009-.468.105-.93.33-1.341.213-.38.528-.692.911-.899a2.776 2.776 0 0 1 2.574 0 2.3 2.3 0 0 1 .91.899 2.84 2.84 0 0 1 0 2.682 2.334 2.334 0 0 1-.934.905 2.67 2.67 0 0 1-1.3.319 2.523 2.523 0 0 1-1.276-.32Zm2.011-.761a1.43 1.43 0 0 0 .562-.569c.152-.282.226-.599.217-.919a1.859 1.859 0 0 0-.208-.913 1.404 1.404 0 0 0-.547-.563 1.51 1.51 0 0 0-.741-.19 1.462 1.462 0 0 0-.732.19c-.23.131-.417.327-.536.563-.14.283-.209.597-.2.913-.026.45.12.894.411 1.239a1.355 1.355 0 0 0 1.031.436c.259.003.516-.062.743-.187Zm7.341-3.959v4.96h-1.025v-.586c-.17.21-.388.374-.635.48a2.012 2.012 0 0 1-.835.176 2.205 2.205 0 0 1-1.048-.243 1.758 1.758 0 0 1-.729-.72 2.338 2.338 0 0 1-.266-1.15v-2.929h1.018v2.764c-.025.37.095.736.334 1.02a1.181 1.181 0 0 0 .908.356 1.202 1.202 0 0 0 .914-.357c.242-.282.364-.648.339-1.019v-2.764l1.025.012Zm4.901.17c.309.16.561.412.724.72.184.356.275.753.263 1.154v2.928h-1.013v-2.773a1.435 1.435 0 0 0-.334-1.022 1.164 1.164 0 0 0-.907-.357 1.2 1.2 0 0 0-.914.357c-.242.283-.364.65-.34 1.022v2.773h-1.019v-4.972h1.025v.565a1.76 1.76 0 0 1 .644-.477c.264-.113.548-.171.835-.17.361 0 .716.086 1.036.252Zm2.261.963a2.265 2.265 0 0 1 2.05-1.215c.33.001.657.073.957.21.293.124.551.317.753.563v-2.392h1.036v6.66h-1.036V45.4a1.89 1.89 0 0 1-.697.586 2.146 2.146 0 0 1-1.022.234c-.414.003-.82-.11-1.171-.328a2.311 2.311 0 0 1-.847-.916 2.84 2.84 0 0 1-.313-1.338 2.736 2.736 0 0 1 .29-1.315Zm3.537.45a1.482 1.482 0 0 0-.553-.585 1.483 1.483 0 0 0-1.464 0 1.49 1.49 0 0 0-.554.565 1.78 1.78 0 0 0-.211.879 1.85 1.85 0 0 0 .211.899 1.5 1.5 0 0 0 .559.585 1.459 1.459 0 0 0 1.473.003c.236-.14.428-.342.554-.585.145-.276.218-.584.21-.896a1.789 1.789 0 0 0-.225-.864Zm9.572-2.877-2.07 3.988v2.269h-1.028v-2.27l-2.076-3.987h1.142l1.464 3.068 1.464-3.068h1.104Zm1.692 6.014a2.307 2.307 0 0 1-.878-.9 2.715 2.715 0 0 1-.325-1.346 2.653 2.653 0 0 1 .334-1.341c.211-.38.526-.692.907-.899a2.784 2.784 0 0 1 2.577 0c.382.207.697.52.908.899.227.41.342.872.334 1.341.008.47-.11.933-.343 1.341-.22.383-.542.696-.931.905a2.673 2.673 0 0 1-1.3.319 2.538 2.538 0 0 1-1.283-.32Zm2.012-.761c.237-.133.433-.328.565-.566.15-.282.224-.6.214-.919.01-.317-.06-.631-.205-.913a1.418 1.418 0 0 0-.551-.563 1.502 1.502 0 0 0-.738-.19 1.49 1.49 0 0 0-.735.19 1.383 1.383 0 0 0-.535.563c-.14.283-.207.597-.197.913-.027.45.12.894.41 1.239a1.362 1.362 0 0 0 1.031.436 1.5 1.5 0 0 0 .741-.19Zm7.343-3.959v4.96h-1.027v-.586c-.169.21-.387.376-.636.48a2.005 2.005 0 0 1-.831.176 2.197 2.197 0 0 1-1.049-.243 1.731 1.731 0 0 1-.729-.72 2.304 2.304 0 0 1-.266-1.15v-2.929h1.016v2.764c-.025.37.094.736.334 1.02a1.343 1.343 0 0 0 1.824 0c.241-.283.362-.65.337-1.02v-2.764l1.027.012Zm2.975.129c.27-.145.573-.218.879-.211v1.063h-.261a1.26 1.26 0 0 0-.914.292c-.238.3-.35.682-.31 1.063v2.612h-1.025V41.19h1.025v.72c.146-.247.355-.452.606-.591Zm4.255.041c.279-.48.684-.873 1.171-1.14a3.404 3.404 0 0 1 3.385.083c.519.326.917.815 1.13 1.39h-1.233a1.628 1.628 0 0 0-.676-.737 1.98 1.98 0 0 0-.999-.243 2.2 2.2 0 0 0-1.106.292 1.96 1.96 0 0 0-.762.803 2.822 2.822 0 0 0 0 2.43c.172.335.436.615.762.805.335.196.718.297 1.106.293a2.01 2.01 0 0 0 .999-.243c.296-.17.532-.428.676-.738h1.233a2.761 2.761 0 0 1-1.13 1.385 3.274 3.274 0 0 1-1.778.486 3.22 3.22 0 0 1-1.61-.41 3.039 3.039 0 0 1-1.171-1.139 3.393 3.393 0 0 1 .003-3.317Zm7.756 4.55a2.307 2.307 0 0 1-.878-.9 2.715 2.715 0 0 1-.325-1.346 2.662 2.662 0 0 1 .333-1.341 2.29 2.29 0 0 1 .911-.899 2.776 2.776 0 0 1 2.574 0c.382.207.696.52.908.899.227.41.342.872.333 1.341.009.47-.109.933-.342 1.341-.22.383-.543.696-.931.905a2.67 2.67 0 0 1-1.3.319 2.535 2.535 0 0 1-1.283-.32Zm2.012-.761a1.47 1.47 0 0 0 .565-.566c.15-.282.224-.6.214-.919a1.88 1.88 0 0 0-.205-.913 1.395 1.395 0 0 0-.551-.563 1.504 1.504 0 0 0-.738-.19 1.464 1.464 0 0 0-.732.19c-.23.13-.416.326-.536.563a1.9 1.9 0 0 0-.199.913c-.027.45.12.894.41 1.239a1.362 1.362 0 0 0 1.031.436 1.49 1.49 0 0 0 .741-.19Zm9.902-3.789c.311.16.565.412.729.72.187.355.279.752.267 1.154v2.928h-1.016v-2.773a1.44 1.44 0 0 0-.325-1.034 1.345 1.345 0 0 0-1.824 0c-.242.284-.363.65-.337 1.022v2.773h-1.016v-2.773a1.44 1.44 0 0 0-.337-1.022 1.344 1.344 0 0 0-1.824 0c-.242.284-.363.65-.337 1.022v2.773h-1.028v-4.96h1.028v.565a1.72 1.72 0 0 1 .639-.477 2.07 2.07 0 0 1 .828-.17c.37-.006.735.08 1.063.252.307.166.558.42.72.729.155-.305.4-.555.703-.715a2.05 2.05 0 0 1 1.025-.266c.363-.002.72.084 1.042.252Zm9.352 0c.311.16.565.412.73.72.186.355.278.752.266 1.154v2.928h-1.016v-2.773a1.44 1.44 0 0 0-.334-1.022 1.17 1.17 0 0 0-.908-.357 1.201 1.201 0 0 0-.916.357 1.44 1.44 0 0 0-.337 1.022v2.773h-1.016v-2.773a1.435 1.435 0 0 0-.334-1.022 1.166 1.166 0 0 0-.907-.357 1.203 1.203 0 0 0-.917.357c-.24.284-.361.65-.336 1.022v2.773h-1.037v-4.972h1.025v.565c.172-.207.391-.37.638-.477.262-.113.544-.17.829-.17.37-.006.735.08 1.063.252.308.164.559.419.72.729.155-.306.4-.555.703-.715a2.047 2.047 0 0 1 1.025-.266 2.23 2.23 0 0 1 1.059.252Zm6.794-.17v4.96h-1.025v-.586c-.17.21-.388.374-.636.48a2.008 2.008 0 0 1-.834.176 2.205 2.205 0 0 1-1.048-.243 1.752 1.752 0 0 1-.729-.72 2.337 2.337 0 0 1-.264-1.15v-2.929h1.016v2.764c-.025.37.095.736.334 1.02a1.172 1.172 0 0 0 .908.356 1.204 1.204 0 0 0 .913-.357c.243-.282.365-.648.34-1.019v-2.764l1.025.012Zm4.901.17c.309.16.561.412.723.72.185.356.276.753.264 1.154v2.928h-1.004v-2.773a1.44 1.44 0 0 0-.334-1.022 1.18 1.18 0 0 0-.908-.357 1.202 1.202 0 0 0-.913.357 1.42 1.42 0 0 0-.337 1.022v2.773h-1.028v-4.972h1.028v.565a1.71 1.71 0 0 1 .641-.477 2.12 2.12 0 0 1 .835-.17c.359 0 .714.086 1.033.252Zm2.345-1.016a.66.66 0 0 1 .469-1.128.658.658 0 0 1 0 1.315.635.635 0 0 1-.469-.187Zm.973.846v4.96h-1.028v-4.96h1.028Zm2.547.837v2.744a.534.534 0 0 0 .129.401.65.65 0 0 0 .448.123h.629v.855h-.811c-.382.026-.76-.09-1.063-.325a1.338 1.338 0 0 1-.369-1.054v-2.744h-.585v-.837h.585v-1.236h1.037v1.236h1.206v.837h-1.206Zm6.617-.837-3.045 7.29h-1.06l1.007-2.412-1.953-4.878h1.142l1.397 3.78 1.449-3.78h1.063Z"/>
</svg>
