<?xml version="1.0" encoding="UTF-8"?>
<svg id="katman_1" xmlns="http://www.w3.org/2000/svg" xmlns:xlink="http://www.w3.org/1999/xlink" version="1.1" viewBox="0 0 150 29.22">
  <!-- Generator: Adobe Illustrator 29.6.1, SVG Export Plug-In . SVG Version: 2.1.1 Build 9)  -->
  <defs>
    <style>
      .st0 {
        fill: #b86b33;
      }

      .st0, .st1, .st2, .st3, .st4, .st5, .st6, .st7, .st8, .st9, .st10, .st11, .st12, .st13, .st14, .st15, .st16, .st17, .st18, .st19, .st20, .st21, .st22, .st23, .st24, .st25, .st26 {
        stroke-linecap: round;
        stroke-linejoin: round;
      }

      .st0, .st1, .st2, .st3, .st5, .st6, .st7, .st8, .st9, .st10, .st11, .st12, .st14, .st15, .st16, .st17, .st18, .st19, .st20, .st21, .st22, .st23, .st25, .st26 {
        stroke: #26140f;
      }

      .st0, .st1, .st3, .st4, .st5, .st7, .st8, .st9, .st11, .st13, .st14, .st15, .st16, .st17, .st18, .st19, .st21, .st22, .st23, .st24, .st25, .st26 {
        stroke-width: .18px;
      }

      .st27, .st6, .st7, .st20 {
        fill: none;
      }

      .st28 {
        fill: #86491c;
      }

      .st1 {
        fill: #c07338;
      }

      .st2, .st29 {
        fill: #26140f;
      }

      .st2, .st20 {
        stroke-width: .09px;
      }

      .st3 {
        fill: #b06228;
      }

      .st30 {
        fill: #96582b;
      }

      .st31 {
        fill: #6b3416;
      }

      .st4 {
        fill: #2a1a11;
      }

      .st4, .st13, .st24 {
        stroke: #130c0a;
      }

      .st5 {
        fill: #c6793f;
      }

      .st6, .st10, .st12 {
        stroke-width: .27px;
      }

      .st8 {
        fill: #874219;
      }

      .st9 {
        fill: #c7773c;
      }

      .st10 {
        fill: #29414c;
      }

      .st32 {
        fill: #633116;
      }

      .st11 {
        fill: #f1ac6a;
      }

      .st33 {
        fill: #aa662f;
      }

      .st34 {
        fill: #7f451d;
      }

      .st35 {
        fill: #5d2f16;
      }

      .st36 {
        fill: #233740;
      }

      .st37 {
        fill: #84491e;
      }

      .st38 {
        fill: #a36230;
      }

      .st39 {
        fill: #733915;
      }

      .st40 {
        fill: #905123;
      }

      .st12, .st41 {
        fill: #fbc16b;
      }

      .st42 {
        fill: #8c4b1f;
      }

      .st43 {
        fill: #fff;
      }

      .st13 {
        fill: #372314;
      }

      .st44 {
        fill: #673116;
      }

      .st45 {
        fill: #a36435;
      }

      .st14 {
        fill: #632911;
      }

      .st46 {
        fill: #965422;
      }

      .st15 {
        fill: #9c5421;
      }

      .st16 {
        fill: #bc6d33;
      }

      .st17 {
        fill: #bf7236;
      }

      .st18 {
        fill: #753f19;
      }

      .st47 {
        fill: #cc9d54;
      }

      .st48 {
        fill: #6e3717;
      }

      .st19 {
        fill: #924115;
      }

      .st49 {
        fill: #ca8f57;
      }

      .st50 {
        fill: #4c2213;
      }

      .st51 {
        fill: #aa6531;
      }

      .st52 {
        fill: #dbbf75;
      }

      .st21 {
        fill: #7d3c19;
      }

      .st22 {
        fill: #c57037;
      }

      .st23 {
        fill: #ab5f27;
      }

      .st53 {
        clip-path: url(#clippath);
      }

      .st24 {
        fill: #271b13;
      }

      .st25 {
        fill: #743715;
      }

      .st26 {
        fill: #feecbd;
      }
    </style>
    <clipPath id="clippath">
      <path class="st27" d="M1.69,19.86c.97,1.26,5.27,5.79,12.35,6.26.03,0,.06.13.1.25.04.1.1.16.1.16.03.49-.04,1.26.3,1.26.36,0,.28-.76.34-1.25,0,0,.05-.04.1-.13.06-.11.13-.25.17-.25.07,0,.14,0,.22,0,.37,0,2.09-.03,4.09-.41.05,0,.03.27.08.51.04.2.15.33.15.35.02.54-.04,1.23.32,1.27s.26-.65.31-1.25c0,0,.17-.18.24-.45.08-.3.07-.68.12-.7,2.4-.62,4.9-1.79,5.84-4.01.17-.39.17-.56.37-2.55.82-8.21,1.09-8.85,1.05-11.57-.05-3.9-.07-5.86-.75-6.57-1.89-1.98-4.26.57-12.22,0-1.3-.09-5.24-.44-7.45,1.29-.11.09-.22.18-.92.75-3.13,2.54-3.15,2.43-3.44,2.76-1.5,1.74.56,3.25-.44,7.01-.73,2.72-2.39,4.08-1.7,6.12.08.24.24.63.65,1.16h0Z"/>
    </clipPath>
  </defs>
  <g class="st53">
    <g>
      <ellipse id="filler" class="st29" cx="6.48" cy="38.76" rx=".11" ry=".19" transform="translate(-16.15 6.63) rotate(-25.67)"/>
      <g>
        <g>
          <path class="st9" d="M25.63,36.36s1.04-.14,1.48.67c.45.81.55,2.78.24,4.04-.31,1.26-1.34,2.78-2.26,2.32,0,0-.73.52-1.05.08s.43-1.16.43-1.16c0,0-.73.38-.87-.05-.14-.43.24-.64.24-.64,0,0-.16-.52.14-1.43.3-.91-.57-1.87.28-2.98.85-1.11,1.39-.86,1.39-.86h0s0,0,0,0Z"/>
          <path class="st51" d="M25.55,39.88s-.25,1.04-.39,1.35c-.14.31-.86.54-.86,0s.69-.89.48-1.92c-.22-1.03.42-2.19.42-2.19l-.53-.24c-.11.11-.22.24-.35.4-.49.63-.38,1.22-.28,1.79.07.4.14.78.02,1.16-.28.86-.14,1.37-.14,1.37l.02.07-.06.03s-.31.18-.19.54c.02.06.07.14.23.14.23,0,.51-.15.51-.15l.1.14c-.19.19-.65.74-.42,1.05.07.09.17.14.29.14.29,0,.63-.24.64-.24l.03-.02c-.09-.23-.15-.54,0-.78.29-.44.6-1.26.63-1.71s-.16-.94-.16-.94h0Z"/>
          <g>
            <path class="st7" d="M23.83,41.62s.03.45.61.42.8-1.04.9-1.46.37-1.12.37-1.12"/>
            <path class="st7" d="M25.09,43.4s-.37-.31-.05-.82c.32-.51.67-1.35.67-1.82s-.12-.88-.12-.88"/>
            <path class="st7" d="M24.46,42.31s.33-.18.44-.57"/>
          </g>
        </g>
        <g>
          <path class="st12" d="M22.61,18.15s1.23-.14,1.96.97c.74,1.1,2.34,7.51,2.76,9.05.42,1.55.81,4.63.83,5.27s-.04,1.91-.45,2.22c0,0-.02,1.75-.19,1.85-.17.1-3.16.36-4.07.12,0,0-.27-.74-.24-1.78,0,0-.71-.02-.81-2.19-.1-2.17-.26-6.08-.33-7.4s-.73-3.88-.73-5.16.23-2.81,1.27-2.96h0s0,0,0,0Z"/>
          <path class="st47" d="M21.86,23.91c.16.89.31,1.73.35,2.34.05.89.14,2.9.22,4.85.04.94.08,1.84.11,2.55.09,1.97.68,2.06.68,2.06h.13s0,.14,0,.14c-.02.83.15,1.46.21,1.67.25.05.64.08,1.15.08,1.19,0,2.54-.14,2.74-.2.07-.17.13-1.02.14-1.74v-.06s.05-.04.05-.04c.29-.22.41-1.14.4-1.95-.5.19-.32,1.39-.94,1.55-.77.2-2.15,0-2.15,0,.57-3.02-.2-5.64-.19-6.54.01-.91-.14-1.96.32-2.71s.47-1.71.06-1.48c-.41.23-.66-.08-.66-.08.54-.53.66-1.5.66-1.82s-.07-.2-.6.04c-.54.25-1.02-1.4-1.02-1.4l-1.82,1.83c.05.3.11.61.16.91h0s0,0,0,0Z"/>
          <path class="st41" d="M24.12,36.26s.77.09,1.43.05,1.55-.31,1.64-.05.09.84-.15.96c-.24.12-2.06.28-3.27.05,0,0-.13-.19-.1-.61.03-.42.45-.39.45-.39h0Z"/>
          <path class="st6" d="M23.22,35.85s2.79.28,4.5-.18"/>
          <path class="st7" d="M26.76,35.84s.15.76,0,1.43"/>
          <path class="st7" d="M24.46,35.93s-.12.78,0,1.34"/>
          <path class="st7" d="M25.55,35.93s.05.92,0,1.29"/>
        </g>
      </g>
      <g>
        <g>
          <g>
            <path class="st22" d="M5.65,58.36s-.25.02-.3.44,0,.96,0,.96c0,0-.03,1.11,3.05,1.34,3.08.23,3.56-1.01,3.55-1.17s.06-1.11.06-1.11c0,0,0-.27-.29-.3-.3-.03-6.08-.16-6.08-.16h0Z"/>
            <path class="st20" d="M5.51,59.12s.54.8,2.63.95c2.09.16,3.61-.83,3.61-.83"/>
          </g>
          <path class="st14" d="M6.57,55.1s-.35,1.47-.52,1.88c-.17.41-.46.64-.54,1.78,0,0,.56.97,2.93,1,2.36.03,3.41-.66,3.41-1.09s.01-2.14,0-2.57.01-.85-.12-1-1.99-.87-3.05-.62c-1.06.25-2.11.62-2.11.62Z"/>
          <path class="st50" d="M6.58,55.46s-.19.8-.29,1.1c-.09.3-.22.65-.34.81-.12.16-.25.67-.25.67,0,0,.39-.54.92-.65,0,0-.09-.53.22-.7,0,0-.12-.49.07-.76.19-.26,1.18-.46,1.5-.5.32-.03,1.07,0,1.48.13.41.13,1.38.71,1.63.67s.25-.33.25-.33c0,0-1.26-.95-2.48-1.01-1.22-.06-2.73.56-2.73.56h0s0,0,0,0Z"/>
          <path class="st7" d="M5.75,58.54s.74-1.34,2.88-1.3c2.15.04,2.85,1.37,2.85,1.37"/>
          <path class="st19" d="M7.22,56.28c-.05-.05-.07-.13-.04-.2.05-.12.19-.29.57-.37.61-.13,1.35-.2,1.7-.1.35.1,1.15.3,1.09.64s-.66-.09-1.29-.21c-.63-.11-1.34.21-1.34.21,0,0-.44.29-.69.03h0Z"/>
          <path class="st50" d="M10.54,55.77s.46.56.04.84c0,0,.21.37,0,.69,0,0,.86.4,1.16.98l.02-2.31-1.23-.21h0Z"/>
          <path class="st19" d="M7.08,57.08c-.05-.05-.07-.12-.04-.18.05-.1.19-.25.57-.32.61-.11,1.35-.18,1.7-.09.35.09,1.15.26,1.09.56-.06.3-.66-.08-1.29-.18s-1.34.18-1.34.18c0,0-.44.25-.69.03h0Z"/>
        </g>
        <g>
          <g>
            <path class="st22" d="M16.8,56.42s-.84.07-.87.5c-.03.43-.05,1.17.07,1.24s3.73,1.28,6.65,1.47c2.92.19,4.11-.54,4.13-.85.02-.31-.04-1.13-.04-1.13,0,0-.26-.18-.36-.19-.11,0-9.58-1.04-9.58-1.04h0Z"/>
            <path class="st20" d="M16.04,57.17s.03.22,1.75.65,2.99.7,5.03.81c2.04.11,3.56-.07,3.81-.59"/>
          </g>
          <path class="st14" d="M16.15,54.95v1.29c0,.21-.13.68.24.91.37.22,2.65.85,5.68,1.1,3.03.25,4.3.07,4.46-.43s-.46-.92-.89-1.16-1.73-.61-2.49-1.07-1.09-1-1.34-1.39c-.26-.39-1.75-.68-2.54-.47-.79.21-3.07.46-3.11,1.23h0Z"/>
          <path class="st50" d="M16.23,55.17s.02.86.03.97c0,.11,1,.02,1.45.94,0,0-.08-.98-.06-1.06.03-.08.8.17,1.17-.02,0,0,1.08.79,1.93.69,0,0-1.33-.46-1.57-.95-.24-.49.67.16.91.19.24.03.42.45.73.49s.32.28.53.37c.2.08.5.31.68.27.18-.04.68-.77,1.97-.86,0,0-1.88.4-2.07.18s.84-.51.83-.59c0-.08-.51-.43-1.04-.23s-.54.39-.55.13c-.02-.27.54-.55.87-.67.33-.12-.55-.94-.55-.94,0,0-2.11-.81-5.27,1.09h0Z"/>
          <path class="st19" d="M21.52,56.71s-.12-.33.22-.54c.33-.21,1.32-.54,1.79-.38.47.16.25.42.04.39-.2-.03-.71-.05-1.06.14-.43.24-.69.72-.98.39h0Z"/>
          <path class="st19" d="M20.76,56.1s-.09-.33.59-.57c.68-.24,1.31-.28,1.45-.18s.28.31-.07.32c-.35,0-.58-.1-.99.16-.41.26-.77.51-.98.27h0Z"/>
          <path class="st19" d="M19.8,55.46s-.15-.46.67-.66c.82-.2,1.23-.25,1.48-.15.24.1.54.29.43.38s-.58-.15-1.03-.03-.73.38-.91.46c-.18.08-.52.26-.64,0h0Z"/>
          <path class="st7" d="M21.27,58.04s.91-1.92,3.15-1.85"/>
          <path class="st7" d="M18.82,55.3s.56.99,2.11,1.45"/>
          <path class="st7" d="M16.93,55.83s.71.62.8,1.34"/>
        </g>
        <g>
          <path class="st10" d="M6.84,37.44s-.68,4.96-.6,7.3.01,5.33,0,6.64c-.02,1.31,0,1.65-.26,2.15s-.05.84,0,1.29c.05.45.13,1,.13,1,0,0,1.84-.79,2.97-.71,1.13.08,2.94,1,2.94,1,0,0,.6-.52.6-1.23s-.18-1.63-.13-2.2,1.5-6.82,1.71-7.61c.21-.79.79-2.55.92-2.34s.29,3.81.39,5.14c.1,1.34.26,4.36.26,4.72s-.13.87,0,1.89c.13,1.02.08.97.47,1,.39.03,1.15.13,2.13-.21.97-.34,1.92-1.1,2.57-1.13.66-.03,1.08.31,1.08.31,0,0,.34-.6.21-1.15-.13-.55-.34-.89-.34-1.39s.81-6.74.97-8.06c.16-1.31.45-2.23.45-2.94s.24-3.04.24-3.04c0,0-.6-1.15-.71-1.15s-15.61-.18-15.61-.18l-.37.92h0s0,0,0,0Z"/>
          <path class="st36" d="M7.58,39.74s3.74.79,8.35.87,7.32-1.19,7.32-1.19l.1-1.69-15.96-.28.2,2.29h0Z"/>
          <path class="st36" d="M6.97,37.47c-.04.31-.68,5.02-.6,7.26.07,2.07.03,4.61,0,6.13v.51c-.01.14-.01.27-.01.39-.01,1.01-.02,1.35-.27,1.83-.17.32-.12.57-.05.86.02.11.05.22.06.35.03.27.07.59.1.79.28-.1.56-.2.56-.2,0,0-.04-.19.05-.39s2.02-.62,2.36-.68c.27-.05,1.6.21,2.14.32.18.17.4.44.39.73,0,.18-.06.27-.08.4.16.07.28.13.35.17.15-.15.5-.56.5-1.07,0-.31-.04-.67-.07-1.01-.05-.45-.09-.87-.06-1.2.05-.6,1.52-6.9,1.71-7.63.09-.35.27-.93.46-1.47.35-.99.46-.99.56-.99.06,0,.11.03.14.08.09.15.16,1.02.3,3.41.04.7.08,1.37.11,1.79.1,1.3.26,4.34.26,4.73,0,.11-.01.22-.02.36-.03.33-.07.79.02,1.52.01.11.03.2.04.29.04.31.06.49.1.56,0,.02.02.02.16.03h.05s.08,0,.13.01c.15.01.33.03.54.03.49,0,.95-.08,1.4-.24.12-.04.25-.09.37-.15.78-.63,1.91-1.78,3.17-1.38,0,0,.23-.25-.5-.39s-1.67-.22-1.77-.2c-.1.02-.71-.22-2.39.51l-.57-10.51s.86-.77,1.28-1.48c.42-.71.6-2.05.6-2.05l-2.66.12s-.42,1.87-.66,2.3-.79.29-1.33,1.85c-.54,1.56-1.58,5.29-1.72,5.82s-.36,4.65-.58,4.82c-.22.17-.45.06-.45.06,0,0,0,0,0,0-.74-.34-1.58-.53-1.82-.53-.3-.01-.56.09-.89.18-.32.09-.45.14-.35-1.48.11-1.62,1.53-3.52,1.53-3.96s-.54-.03-1.21-1.71.69-8.7.69-8.7c-.09-.71-.93-1.17-1.15-1.6-.28,0-.49,0-.61,0l-.33.82h0Z"/>
          <g>
            <path class="st7" d="M17.73,37.51s-.02,2.57-.22,3.5c-.28,1.34-2.32,1.61-2.32,1.61"/>
            <path class="st7" d="M16.31,38.26s.1,2.97-.77,3.98"/>
            <path class="st7" d="M16.15,42.75s.28,4.19.35,5.55.12,3.56.2,4.41-.1,1.77.1,2.24"/>
            <path class="st7" d="M21.8,53.35s-1.2-.51-1.91-.16-1.59.94-1.59.94"/>
            <path class="st7" d="M7,54.57s1.85-.7,2.28-.65c.93.1,2.32.79,2.32.79"/>
            <path class="st7" d="M7,41.84s-.1,4.49-.12,5.75c-.02,1.26.06,3.29,0,3.84s-.06,1.59-.28,2.07-.12.85-.12,1.08"/>
          </g>
        </g>
      </g>
      <g>
        <path class="st12" d="M23.98,20.71s.21,2.06,0,3.12.21,2.51.21,2.93.14,3.65.21,4.4c.07.75.21,2.17.17,3.36-.04,1.19-.69,1.93-.69,1.93l-.14,1.77s-.96,1.38-7.68,1.52c-7.18.15-11.07-1.77-11.07-1.77v-1.52c-1.33-.62-1.21-3.82-1.48-5.04-.27-1.22-.56-1.14-1.74-4.33-1.18-3.19,0-7.51.25-7.82.25-.31,1.1-.96,1.1-.96,0,0,4.67-1.07,6.64-1.07s4.46-.16,5.46-.13c1,.03,3.07.35,3.31.39s2.44.4,2.52.45,1.88-.06,2.19.21c.29.25.37.78.37.78"/>
        <path class="st47" d="M1.9,27.03c.6,1.62.97,2.41,1.22,2.92.24.51.39.81.52,1.42.07.32.11.76.16,1.26.14,1.37.32,3.26,1.24,3.68.05.02.08.07.08.12v1.44c.57.26,4.41,1.86,10.94,1.72,6.02-.12,7.37-1.26,7.55-1.44l.13-1.73s.01-.06.03-.08c0,0,.62-.72.66-1.85.04-1.07-.08-2.34-.15-3.1l-.02-.25c-.02-.24-.05-.75-.08-1.35-.22.91-.33,2.09-.31,3.13.05,2.17-.66,2.53-.66,2.53-7.13,1.7-11.42.64-12.36.18-.94-.46-.65-1.3-1.36-2.15-.72-.85-1.77-.98-1.78-2.45s.66-1.18,1.04-1.01.78.1,0-1.13c-.78-1.24-.31-3.13-1.1-4.83s-2.48-2.01-2.48-2.01l-3.78,2.01c.02.99.16,2.01.5,2.94h0,0Z"/>
        <path class="st41" d="M11.93,38.36s6.39.68,10.44-.9c0,0,.64-.09.73.46.08.55-2.53,1.48-6.43,1.39-3.9-.09-4.91-.1-5.09-.33s-.2-.66.36-.61h0,0Z"/>
        <g>
          <path class="st6" d="M9.1,37.46s-.45-1.24-.31-1.52c.14-.28,1.31-1.55,1.86-3.24s.47-2.15.58-2.19c.1-.04,6.63.46,11.01-.45,0,0,.28-.08.34.13.07.21.82,3.36,1.97,4.57"/>
          <path class="st7" d="M23.63,35.48s-1.38-3.33-1.72-4.8"/>
          <path class="st7" d="M12.32,31.06s-.2,2.86-2.47,5.2"/>
        </g>
        <g>
          <path class="st6" d="M4.99,36.44s4.88,1.61,10.16,1.67c5.28.06,8.73-1.66,8.73-1.66"/>
          <g>
            <path class="st7" d="M7.77,37.18s-.11.78-.1,1.28"/>
            <path class="st7" d="M9.57,37.55s-.15.8-.15,1.3"/>
            <path class="st7" d="M11.14,37.8s-.08.94-.09,1.31"/>
            <path class="st7" d="M12.82,37.99s-.1.87-.06,1.23"/>
            <path class="st7" d="M14.53,38.09s-.13.91-.09,1.21"/>
            <path class="st7" d="M16.08,38.11s.1.77.04,1.2"/>
            <path class="st7" d="M17.85,37.99s.16.55.11,1.17"/>
            <path class="st7" d="M19.49,37.75s.05.72,0,1.22"/>
            <path class="st7" d="M20.8,37.48s.04.85,0,1.4"/>
            <path class="st7" d="M22.1,37.12s.04.85,0,1.41"/>
            <path class="st7" d="M6.29,36.82s-.15.7-.13,1.05"/>
          </g>
        </g>
        <path class="st47" d="M23.02,18.15s.23.1.38.54c0,0-.25.98-1.38,1.69-1.13.7-3.09.89-3.48.75s4.48-2.98,4.48-2.98h0Z"/>
      </g>
      <path class="st47" d="M3.11,18.51s.24-.4,4.16.78c3.92,1.19,8.1,2.37,8.64,2.06.54-.31-9.53-4.19-9.6-4.13-.07.06-2.99.74-3.2,1.29h0Z"/>
      <g>
        <g>
          <path class="st9" d="M3.74,37.55s1.48.07,2.12.56c.64.5.92,1.87,1.04,2.86.13.98.46,1.82-.19,2.08-.65.26-1.19-1.51-1.19-1.51,0,0-.11,1.02.22,1.67.32.65.67,1.17.45,1.44s-1.12-.07-1.12-.07c0,0-.7.5-1.83-.41,0,0-.96-.14-1.42-1.29-.45-1.15-.49-3.47,0-4.33s1.92-.99,1.92-.99h0Z"/>
          <path class="st51" d="M6.91,41.57c-.03-.19-.07-.39-.1-.6-.19-1.47-.54-2.43-1.01-2.8-.59-.46-1.96-.54-2.06-.54-.1.01-1.4.16-1.84.95-.46.81-.46,3.08,0,4.26.43,1.09,1.31,1.23,1.35,1.23h.02s.02.02.02.02c.44.35.85.53,1.24.53.31,0,.48-.12.48-.12l.04-.03.04.02s.45.17.78.17c.12,0,.21-.02.25-.07.14-.18-.06-.57-.3-1.02-.05-.1-.11-.21-.16-.32-.33-.66-.23-1.68-.23-1.72l.17-.02c.13.41.55,1.47.98,1.47.03,0,.07,0,.1-.02.43-.17.37-.61.23-1.38h0s0,0,0,0ZM6.22,42.28c-.14-.04-.62-1.31-.62-1.31,0,0-.7.7-.68,1.31.02.61.32,1.5.29,1.78s-.73,0-.73,0c0,0-1.31.14-2.08-1.24-.13-.51-.23-1.13-.21-1.87.06-2.15.63-1.08,2.64-1.59.53-.13.92-.27,1.22-.41.14.45.29,1.06.33,1.66.08,1.2-.03,1.72-.17,1.67h0Z"/>
          <path class="st7" d="M3.6,41.62s-.09,1.2.45,1.96c.3.41,1.01.99,1.01.99"/>
          <path class="st7" d="M2.2,41.97s.09,1.39,1.04,2.19"/>
          <path class="st7" d="M5.52,41.54s-.03-.62.16-.93"/>
        </g>
        <g>
          <path class="st12" d="M1.05,37.02s.09,1.22.42,1.82c0,0,2.77.49,4.83-.59,0,0,.14-1.19-.17-1.94,0,0,.6-.81.46-1.61-.14-.8-.39-2.83-.42-3.12s.01-.28.04-.62c.03-.34.08-.7-.08-1.06,0,0,.45-2.83.48-3.46.03-.63.33-2.45-.27-3.91-.6-1.46-2.63-3.91-3.96-3.62-1.33.29-2.78,7.31-3.01,9.7s.09,5.16.31,6.13.89,2.02,1.36,2.3h0Z"/>
          <g>
            <path class="st47" d="M6.04,31.21s0-.02,0-.03c-.44-.47-1.27-1.13-2.4-1.08,0,0,1.48.97,2.48,2.3-.05-.4-.09-.71-.09-.81-.02-.2,0-.27,0-.38h0Z"/>
            <path class="st47" d="M6.51,26.06s0-.01,0-.02c.04-.41.09-1,.06-1.65-.24-.41-.79-1.12-1.83-1.21,0,0,.68.71,1.18,1.69.2.4.41.83.58,1.19h0Z"/>
            <path class="st47" d="M6.02,29.74c.03-.18.08-.51.14-.9-.45-.15-1.1-.43-1.85-.93,0,0,.92,1.17,1.71,1.83h0,0Z"/>
          </g>
          <path class="st47" d="M6.07,36.17l-.07-.24-5.35.52c.16.21.33.38.47.46l.06.04v.07s.09,1.12.38,1.71c.12.02.41.06.79.08-.14-.29-.29-.69-.36-1.2,0,0,3.17-.02,4.17-.59-.03-.23-.08-.46-.16-.65l-.03-.07.04-.06s.02-.03.04-.06h0Z"/>
          <path class="st47" d="M6.43,35.33c-1.17.57-3.25.59-3.99.38-.89-.25-1.72-4.84-1.01-9.95.49-3.56,1.61-5.5,2.24-6.35-.37-.25-.74-.41-1.07-.41-.07,0-.13,0-.2.02-1.16.25-2.66,6.93-2.9,9.58-.22,2.37.09,5.14.31,6.09.22.96.87,1.96,1.3,2.21l.06.04v.03c2.17.25,3.98-.27,4.84-.58,0,0,0-.02-.01-.03l-.03-.07.04-.06s.29-.4.41-.9h0Z"/>
          <path class="st6" d="M1.05,37.02s1.23.11,2.9-.13,2.18-.57,2.18-.57"/>
          <path class="st7" d="M1.99,37.11s-.03.83.28,1.43"/>
          <path class="st7" d="M3.06,37.11s-.04.84.23,1.43"/>
          <path class="st7" d="M4.13,36.86s.14.77.2,1.49"/>
          <path class="st7" d="M5.17,36.65s.29.74.27,1.46"/>
          <g>
            <path class="st7" d="M6.13,29.9s-1.45-1.56-1.9-2.09"/>
            <path class="st7" d="M6.16,31.33s-.82-1.22-2.59-1.23"/>
            <path class="st7" d="M6.62,26.28s-.95-2.26-1.99-3.2"/>
          </g>
        </g>
      </g>
      <g>
        <path class="st12" d="M16.46,21.56c-.61,0-2.52-.51-5.94-1.77s-5.92-1.77-6.51-1.82-1.08.5-1.08.5c-.96-.84-.5-1.73-.5-1.73.05-.39.49-.79.6-1.38.12-.59-.01-.79.37-1.25s1.29-.72,1.29-.72c0,0-.28.8,1.04,1.5,1.31.7,1.4.18,4.25,1.68,2.85,1.5,5.5,3.15,5.5,3.15l1.74.98s2.97-2.86,3.23-3.18c.26-.32.91-1.44.16-2.03l1.15-.5s.55.37.66.7-.08.77.17,1.09c.25.31.77.85.34,1.78-.43.93-2.99,2.52-4.75,2.78"/>
        <path class="st47" d="M7.69,17.13s-2.24-1.13-2.82-1.72c-.25-.25-.23-.71-.11-1.14-.18-.27-.23-.51-.23-.68-.28.1-.78.31-1.03.61-.24.29-.25.44-.28.72-.01.13-.02.28-.06.46-.07.34-.23.61-.37.84-.12.2-.22.37-.24.52,0,.02,0,.03-.01.04-.02.03-.37.76.38,1.49.08-.07.2-.17.35-.26.02-.27.09-.58.24-.81.35-.53,2.18-.69,4.17-.08h0Z"/>
        <g>
          <path class="st7" d="M19.59,19.67s2.68-1.71,2.89-3.04"/>
          <path class="st7" d="M21.74,15.01s.19.54-1.05,2.21"/>
          <path class="st7" d="M3.51,16s2.55.43,4.17,1.14c1.63.71,3.35,1.55,3.35,1.55"/>
          <path class="st7" d="M4.63,13.42s-1.22,1.05.15,1.47"/>
        </g>
      </g>
      <g>
        <path class="st26" d="M14.56,26.21s.18-.03.2.12c.03.15.15,1.37-.15,1.4-.3.03-.29-.28-.29-1.24,0,0-.05-.27.23-.28Z"/>
        <path class="st26" d="M14.56,26.56s-.39.13-.43-.71c-.04-.84.23-1.29-.07-3.11-.22-1.33-.43-2.64-.08-2.76.35-.12.5-.19.79,1.23.38,1.82.39,2.76.37,3.52-.02.76.02,1.82-.58,1.83h0Z"/>
        <path class="st52" d="M14.15,22.73c.2,1.23.15,1.83.1,2.36-.02.25-.04.49-.03.76.02.4.13.63.29.63.02,0,.03,0,.03,0h.01s.01,0,.01,0c.11,0,.2-.05.27-.14-.34-.07-.43-.37-.43-.64,0-.35.18-1.99-.08-3.84-.12-.89-.27-1.4-.39-1.69-.14.35.06,1.58.21,2.51v.06h0Z"/>
        <path class="st7" d="M14.13,25.77s.43.35.93,0"/>
      </g>
      <g>
        <path class="st26" d="M20,26.29s.18-.03.2.12c.03.15.15,1.37-.15,1.4-.3.03-.29-.28-.29-1.24,0,0-.05-.27.23-.28Z"/>
        <path class="st26" d="M20,26.64s-.39.13-.43-.71c-.04-.84.23-1.29-.07-3.11-.22-1.33-.43-2.64-.08-2.76.35-.12.5-.19.79,1.23.38,1.82.39,2.76.37,3.52s.02,1.82-.58,1.83h0Z"/>
        <path class="st52" d="M19.59,22.8c.2,1.23.15,1.83.1,2.36-.02.25-.04.49-.03.76.02.4.13.63.29.63.02,0,.03,0,.03,0h.01s.01,0,.01,0c.17,0,.27-.12.35-.29-.2,0-.4-.05-.43-.26-.05-.42.09-1.51,0-2.69-.07-.93-.41-2.45-.55-3.05-.13.38.07,1.58.22,2.49v.06h0,0Z"/>
        <path class="st7" d="M19.57,25.84s.43.35.93,0"/>
      </g>
      <g>
        <path class="st25" d="M20.21,15.24s.59.32.73.76c.14.44.02,1.15-.87,1.86-.89.71-1.41-1.26-1.2-1.59.21-.33.75-.72.76-.76.01-.04.58-.26.58-.26h0Z"/>
        <path class="st3" d="M4.65,13.49s-.31,1.14,1.89,1.79c2.2.65,2.64.91,4.68,2.03,1.89,1.04,5.98,3.41,5.98,3.41,0,0,2.07-1.95,2.4-2.3.33-.35.47-.55.47-.55,0,0-.28-1.57.24-2.36s1.73-3.88-.75-5.04c-2.48-1.16-6.24-2.34-7.09-2.22-.86.12-1.68.31-2.24.55-.55.24-.83.16-1.32.63-.49.47-.77.73-1.04,1-.28.28-3.23,3.07-3.23,3.07h0Z"/>
        <path class="st37" d="M11.5,17.23c-.49-.66-.64-1.95-.62-1.98.02-.04-.42.22-1.02.37-.59.16-.66-1.6-.66-1.6,0,0-.97,1.19-1.36,1.14s-.51-1.35-.51-1.35c-.54-.27-1.09-.54-1.63-.81-.18.14-.37.29-.55.43-.15.07-.29.13-.44.2,0,.07.01.17.05.28,0,.02.03.09.08.18.02.03.1.18.26.35.15.15.29.24.38.3.14.09.26.15.35.19.17.06.41.18.72.27,2.14.63,2.64.91,4.51,1.93l.19.1c.12.07.26.14.4.22-.05-.07-.11-.14-.17-.22h0Z"/>
        <path class="st9" d="M13.18,18.4s-3.35-2.67-2.19-5.51,7.37,1.02,7.53,1.21,1.16.39,1.5.62.3.78.3.78c0,0-.31.4-.3,1.1.01.7.06,1.26.06,1.26,0,0-1.65,1.88-2.87,2.85,0,0-3.56-1.99-4.03-2.31h0Z"/>
        <path class="st51" d="M10.27,11.39s-.93,2.3,2.42,4.31c3.36,2.01,5.76,2.39,6.54,1.64.78-.75.77-2.45.77-2.45l-9.74-3.5h0Z"/>
      </g>
      <g>
        <g>
          <path class="st15" d="M11.71,2.48s-.58-.32-1.54.09c-.96.41-2.41,1.23-2.08,1.42s2.4-.31,2.77-.43,1.91-.78.85-1.07h0Z"/>
          <path class="st28" d="M9.67,2.9s.1.18.23.18c0,0-.08.13-.07.27,0,0-1.01.19-1.18.56,0,0,1.65-.23,2.01-.32.36-.09.8-1.15.8-1.15l-.41-.08s-.7.19-1.38.54h0,0Z"/>
          <path class="st15" d="M13.26,2.45s-.59-.69-1.39-.54-1.51.36-1.5.47c0,.11,1.62.2,2.29.29.67.09.6-.22.6-.22h0Z"/>
          <path class="st8" d="M6.9,6.65s-1.36,1.26-1.25.54,2.76-3.74,4.41-3.57c1.65.17-1.72,2.51-1.72,2.51l-1.44.52h0Z"/>
          <path class="st48" d="M7.81,4.74s-.4.67-.43.76c0,0-1.45,1.18-1.59,1.56s.13.26.51.17c.38-.1,1.59-.92,1.59-.92l2.11-2.59s-.69-.21-2.18,1.03h0Z"/>
          <path class="st21" d="M11.19,13.72s-.31,2.78-1.23,2.79c-.92.01-.88-2.36-.81-3.11.09-.97.87-2.01,1.13-2.01s1.43.54.92,2.32Z"/>
          <path class="st32" d="M9.26,15.2s.66-1.56.81-1.98l.93,1.08.18-1.12-1.01-1.6-.67.43-.64.34.41,2.85h0Z"/>
          <path class="st21" d="M9.27,13.64s-.24,2.19-1.41,2.05c-1.17-.14-.39-2.29-.19-2.78.21-.49.34-1.35,1.14-1.09.8.25.45,1.82.45,1.82h0Z"/>
          <path class="st32" d="M7.43,13.95s.26.07.43-.1c0,0-.03.47.29.48s.65-.35.73-.48c0,0,.1.32.19.34,0,0,.21-.97.19-1.3-.03-.32-1.07-.6-1.07-.6,0,0-.37,1.09-.76,1.66h0Z"/>
          <path class="st23" d="M16.88,3.12s-1.08-1.34-2.39-1.51c-1.31-.17-2.61.07-2.43.28.18.22,1.36.9,2.52,1.02,1.15.12,2.3.21,2.3.21h0Z"/>
          <path class="st46" d="M12.89,2.3s.78-.62,2.22-.22c0,0-.08-.11-.19-.29,0,0,.88.32,1.05.52s.3.61.3.61l-2.88-.44-.51-.18h0Z"/>
          <path class="st21" d="M8.53,10.94s-.45,1.77-1.19,3.01-1.73,1.35-1.81.54.48-2.63,1.34-3.49c.86-.87,1.13-1.05,1.5-.83.36.23.17.77.17.77h0Z"/>
          <path class="st44" d="M5.79,13.23s.29-.14.38-.21c0,0,.02.26.21.28s.7-.17.99-.47c0,0,0,.56.15.59,0,0,.7-1.57.81-2.05.11-.48.17-.88.17-.88l-1.86.73s-.52.87-.85,2.02h0Z"/>
          <path class="st21" d="M6.83,11.45s-1.61,2.16-1.98,2.16.18-2.83.99-4.01c.81-1.17.97-1.35,1.55-1.18.58.17.16,2.07-.56,3.03h0Z"/>
          <path class="st35" d="M5.22,11.2s.58-.25.78-.47c0,0-.18,1.09.08,1.52,0,0,.96-1.19,1.18-1.67.22-.48.26-2.41.26-2.41l-1.9,1.61s-.42,1.35-.41,1.42h0,0Z"/>
          <path class="st8" d="M9.39,5.86s-.81.56-1.21,1.29c-.4.73-1.52,2.22-2.41,3-.89.78-.9.56-.85,0,.05-.56.59-3.42,2.7-4.34s2.37-.46,1.77.05h0Z"/>
          <path class="st31" d="M6.52,6.75s.66-.78,1.27-.87,1.03.33,1.03.33c0,0-.45.43-.7.87-.25.43-.59.93-.59.93,0,0-.11-.39-.1-.55s.18-.57.18-.57c0,0-1.26.22-1.1-.13h0Z"/>
          <path class="st8" d="M10.51,10.46s-.29,1.54-1.21,2.59c-.93,1.05-1.19.68-1.21.09s.12-2.65.9-3.36c.78-.71,2.25-1.81,1.53.68h0Z"/>
          <path class="st44" d="M8.35,11.41s.53-.25.76-.81c0,0,.32.08.49,0,0,0,.25.84.53.93.28.1.03,0,.03,0l.92-3.07-1.56.78s-.91.82-1.17,2.17h0Z"/>
          <path class="st17" d="M18.45,4.18s-.43-1.57-1.3-2.07-2.06-.77-1.82-.31c.24.46,2.01,2.23,2.44,2.33.43.11.68.05.68.05h0Z"/>
          <path class="st33" d="M16.31,2.81s.4-.16.71-.05c0,0-.21-.45,0-.62,0,0,.99.62,1.11.83s.47,1.37.47,1.37l-.35.04-1.94-1.56h0Z"/>
          <path class="st8" d="M9.35,9.02s-.8,2.03-2.06,2.8c0,0-.71.53-.76-.1-.06-.63.19-3.24,1.67-4.16,2.83-1.76,1.48.75,1.15,1.46h0Z"/>
          <path class="st39" d="M8.64,10.18s-.41-.1-.31-1.33c0,0-.31-.09-1.27.35,0,0,.3-.8.69-1.14s1.89-.64,1.89-.64l-.38,1.75-.62,1h0Z"/>
          <path class="st15" d="M12.53,6.72s-.97.26-1.41,1.21-1.17,1.77-1.71,2.04c-.54.27-.76-.59-.42-1.55.34-.95,1.79-2.11,2.64-2.17s1.79-.16.91.46h0Z"/>
          <path class="st34" d="M10.14,6.98s-1.11.99-1.21,2.02c0,0,.59-1.43,2.45-1.63,0,0,.62-.44,1.2-.77l-.1-.22-2.35.61h0Z"/>
          <path class="st18" d="M10.61,5.2s-.76.26-1.84,1.33c-1.07,1.06-1.41,1.59-1.11,1.69s3.26-1.94,4.34-2,1.67-1.14.64-1.25-2.03.22-2.03.22h0Z"/>
          <path class="st15" d="M10.71,5.09s-.92.91-1.88,1.23c-.97.33-1.33.26-1.16-.42s1.66-2.18,2.7-2.41,1.81-.22,1.98.09-1.64,1.51-1.64,1.51h0Z"/>
          <path class="st42" d="M9.53,3.97s.39.3.8.29c0,0-.77.85-.84,1.64,0,0,1.12-.75,1.42-1.1.3-.35,1.11-.78,1.11-.78l-1.34-.56s-.43.07-1.15.5h0Z"/>
          <path class="st23" d="M14.1,5.55s-3.76.61-3.82-.09c-.06-.7,1.61-1.9,2.9-1.68,1.29.22,2.05,1.51.93,1.77h0Z"/>
          <path class="st40" d="M11.32,4.33s.3.21.66.2c0,0,.37.79,1.06.88s1.92,0,1.92,0l-1.12-1.08-1.19-.36-.64-.06s-.6.35-.69.42h0Z"/>
          <path class="st5" d="M19.76,5.79s.41-1.41-.6-2.54c-1.01-1.13-2.17-1.28-1.93-.99.89,1.06,1.42,2.35,1.52,2.7.1.35.49.93,1.01.83h0Z"/>
          <path class="st45" d="M18.52,4.19s-.12-.36-.37-.77c0,0,.53.05.68.19,0,0-.08-.33-.02-.57,0,0,.87.83,1.1,1.48s.19.93.19.93l-.89.21-.7-1.45h0Z"/>
          <path class="st23" d="M12.73,4.09s-2.35.05-2.5-.56c-.15-.62,1.63-1.36,2.95-1.09,1.32.28,2.11.71,2.36,1.12s-1.56.68-2.81.54h0Z"/>
          <path class="st46" d="M11.82,3.97s-.19-.33,0-.63,1.18-.31,1.18-.31c0,0-.3-.37.18-.49,0,0,.54.06,1.01.32.47.26.81,1.02.81,1.02,0,0-2.07.21-3.18.09h0Z"/>
          <path class="st16" d="M15.11,5.4s-2.71-.76-2.75-1.65c-.04-.89,3.44.2,4.31.71.87.51,1.48,1.31.83,1.51s-2.38-.56-2.38-.56h0Z"/>
          <path class="st30" d="M16.87,5.27s-.26-.27-.52-.52c-.26-.25-1.27-.4-1.46-.88,0,0,1.75.42,1.96.7s.42.7.42.7h-.4,0Z"/>
          <path class="st17" d="M16.41,4.31s-.97-.25-1.67-.7c-.7-.45-1.27-1.29-.75-1.34.52-.05,2.19.45,2.89.77s1.88,1.46,1.14,1.52c-.73.07-.87-.09-1.61-.25h0Z"/>
          <path class="st33" d="M15.8,3.54c.23-.17,1.19-.25,1.45-.17,0,0,.52.34.62.6.09.26-1.38.26-1.38.26,0,0-.27-.05-.7-.21-.16-.06-.18-.34,0-.48h0Z"/>
          <path class="st30" d="M17.52,5.19s-2.67-.09-4.06-.52c0,0,1.44.62,1.74.64s2.53.33,2.53.33l-.21-.45h0Z"/>
          <path class="st1" d="M17.96,5.79s-1.75-1.46-1.71-1.85,2.09-.01,2.61.33c.52.34,1.18,1.55,1.02,1.84-.16.29-1.34.12-1.93-.31h0Z"/>
          <path class="st38" d="M18.06,5.8l-.72-.7s.27.12.96.22c.68.11,1.12-.27,1.12-.27,0,0,.25.32.36.69s-1.09.32-1.09.32l-.63-.26h0Z"/>
          <path class="st0" d="M19.72,6.11s.58.3,1.06,0,.22-.89-.29-1.64c-.51-.75-1.28-1.55-1.21-1.06s.67,2.45.44,2.7h0Z"/>
          <path class="st30" d="M19.79,5.17s.34.07.59.02c.26-.05.37-.15.37-.15,0,0,.18.32.19.55l-1.09.14s-.03-.45-.06-.56h0Z"/>
        </g>
        <g>
          <path class="st11" d="M18.52,6.7s.4-.41.89-.26c.64.2.31.9.45.97,1.51.77,3.82,1.98,4.36,2.67.79,1.01.65,3.43-1.63,4.53-2.28,1.1-4.39,1.82-7.16,1.09s-5.32-2.3-5.37-4.38,1.5-3.91,1.5-3.91c0,0,.26-.51.86-.65,0,0,1.67-.69,2.74-.62s3.36.56,3.36.56h0Z"/>
          <path class="st49" d="M12.44,13.9c-2.29-1.5-1.92-4.41-1.92-4.41l-.06.04c-.2.54-.33,1.15-.31,1.79.06,2.15,2.78,3.63,5.31,4.3.75.2,1.46.3,2.18.3.88,0,1.7-.14,2.52-.4-3.13.33-5.51-.17-7.71-1.61h0,0Z"/>
          <path class="st49" d="M12.45,11.07s.34.09.4.29c.06.2.83,1.22,2.34,1.96,1.51.74,6.23,1.22,6.41,1.13,0,0-2.71-.34-4.58-.88-1.87-.54-3.27-1.29-3.86-2.27-.59-.98-.71-.23-.71-.23h0,0Z"/>
          <g>
            <g>
              <path class="st29" d="M13.07,10.74c.06.17.16.33.26.48.98,1.29,2.97,2.02,4.49,2.44.17.05.43.11.6.15.09.02.21.05.3.07,1.01.23,2.04.38,3.07.5.05,0,.08.05.08.1,0,.05-.05.08-.1.08-.83-.08-1.66-.18-2.48-.32-.17-.03-.44-.08-.62-.12-.09-.02-.22-.04-.31-.06-.11-.02-.36-.08-.46-.1-.14-.03-.39-.1-.53-.14-.17-.05-.36-.1-.53-.15-1.4-.43-3.3-1.24-4.04-2.57-.04-.08-.08-.16-.1-.24-.08-.26.29-.38.37-.11h0Z"/>
              <path class="st29" d="M12.38,11.19c0-.27.19-.54.45-.62.26-.08.55,0,.75.17.03.02.05.05.07.07-.14,0-.26-.02-.38-.02-.12,0-.23,0-.35.02-.22.06-.38.22-.55.37h0Z"/>
            </g>
            <path class="st2" d="M21.59,11.74s-.22-.34-.55-.5c-.43-.21-.56-.56-.36-.69s.52.04.76.47.15.73.15.73h0Z"/>
            <path class="st2" d="M24.14,11.74s-.19-.42-.16-.65c.02-.22.18-.26.3-.19.11.06.21.54-.13.85Z"/>
          </g>
        </g>
        <path class="st49" d="M11.04,8.3s.89-.64,1.24-.71-.11.61.41,1.52c.53.92,1.53,1.13,2.49,1.13s2.14-.2,2.47-1.02,1.12-2.71,1.12-2.71c0,0-5.66.12-6.2.27-.54.16-.8.25-1.54,1.52h0,0Z"/>
        <path class="st49" d="M19.85,7.51s-.13-.04-.12-.2.02-.38-.06-.49c-.08-.11-.55-.33-.81.12-.26.45-.41.94-.45,1.03l-.03.09s.92-.56,1.47-.55h0Z"/>
        <g>
          <path class="st24" d="M13.22,6.38s-1.5.22-3.02.91c-.7.31-2.37,1.09-2.56,1.17s-.08-.54.6-1.06,1.99-1.26,3.33-1.64c.91-.26,1.29-.28,1.5-.24.21.04.49.68.14.87h0Z"/>
          <path class="st13" d="M12.38,5.75s.03.25.14.57c.11.32.17.51.24.98s0,2.07,1.43,2.49c1.42.42,3.02.25,3.68-.85.66-1.09,1.06-2.12,1.37-2.15.31-.03.61.04.63.61,0,0,1.62.81,2.13,1.11.51.3,1.43.88,1.43.88,0,0,.36.07.6-.88s.28-1.62.4-1.78c.13-.16.18-.2.22-.48.04-.29.03-.57-.31-.67s-1.69-.34-2.69-.18c-.99.17-1.76.48-2.87.31-1.11-.18-2.05-.44-3.81-.45s-2.6.1-2.59.47h0Z"/>
          <path class="st4" d="M14.15,5.81s-.75.02-.78.61,0,.95.01,1.31.1,1.45.93,1.7c.83.25,2.13.26,2.91-.37.79-.63.91-1.76.88-2.14s.06-.88-.54-.96c-.6-.08-1.94-.25-3.41-.15h0Z"/>
          <path class="st4" d="M20.11,7.53s.16-1.31.97-1.43,2.01-.3,2.44-.1.3.67.25,1.14-.32,2-.81,1.97c0,0-1.45-.86-1.87-1.08s-.98-.5-.98-.5Z"/>
        </g>
      </g>
    </g>
  </g>
  <g>
    <path class="st43" d="M44.75,9.05c-.43-.9-1.12-1.56-2.05-1.97-.94-.41-2.15-.62-3.66-.62h-7.55v16.56h5.3v-4h2.65c2.03,0,3.53-.53,4.5-1.58.97-1.05,1.46-2.67,1.46-4.86,0-1.45-.22-2.62-.65-3.52ZM39.84,14.06c0,.42-.08.72-.23.87-.15.16-.42.24-.81.24h-2.01v-4.34h2.01c.39,0,.66.08.81.24.15.16.23.45.23.87v2.12Z"/>
    <path class="st43" d="M49.37,6.46l-4.24,16.56h5.3l.67-2.62h4.77l.67,2.62h5.3l-4.24-16.56h-8.24ZM52.09,16.55l1.28-5.01h.24l1.28,5.01h-2.81Z"/>
    <path class="st43" d="M73.11,14.14h-.16c0-.25-.05-.53-.15-.83-.1-.31-.27-.66-.52-1.05l-3.6-5.8h-5.24v16.56h5.3v-7.68h.16c0,.23.05.5.16.81.11.31.27.67.5,1.07l3.6,5.8h5.24V6.46h-5.3v7.68Z"/>
    <path class="st43" d="M88.05,16.95h1.35v2.2h-3.05v-6.86c0-.72.18-1.21.53-1.47.35-.26,1.01-.38,1.96-.38.37,0,.79.02,1.27.07.48.04.97.1,1.47.17.5.07.97.16,1.39.26l.66-4.19c-.3-.12-.75-.24-1.34-.34-.59-.11-1.23-.19-1.92-.25-.69-.06-1.33-.09-1.93-.09-1.5,0-2.75.14-3.76.42-1.01.28-1.81.75-2.4,1.4-.59.65-1.01,1.54-1.26,2.66-.25,1.12-.37,2.52-.37,4.2s.11,3.08.33,4.2c.22,1.12.6,2.01,1.13,2.66.53.65,1.24,1.12,2.15,1.39s2.03.41,3.39.41c1.48,0,2.76-.09,3.83-.28,1.07-.19,2.05-.49,2.95-.91v-9.11h-6.38v3.84Z"/>
    <path class="st43" d="M110.07,7.94c-.61-.67-1.43-1.15-2.45-1.44-1.02-.29-2.29-.44-3.79-.44s-2.76.15-3.79.44c-1.02.29-1.84.77-2.45,1.44-.61.67-1.05,1.56-1.31,2.68s-.4,2.49-.4,4.13.13,3.02.4,4.12c.26,1.1.7,1.99,1.31,2.66.61.67,1.43,1.15,2.45,1.44,1.02.29,2.29.44,3.79.44s2.76-.15,3.79-.44c1.02-.29,1.84-.77,2.45-1.44.61-.67,1.05-1.56,1.31-2.66.26-1.1.4-2.48.4-4.12s-.13-3.02-.4-4.13c-.26-1.11-.7-2-1.31-2.68ZM106.09,17.48c0,.53-.15.9-.45,1.1-.3.2-.85.3-1.64.3h-2.41v-6.89c0-.53.15-.9.45-1.1.3-.2.84-.3,1.62-.3h2.44v6.89Z"/>
    <polygon class="st43" points="119.2 6.46 113.9 6.46 113.9 23.01 124.23 23.01 124.23 18.64 119.2 18.64 119.2 6.46"/>
    <rect class="st43" x="125.69" y="6.46" width="5.3" height="16.56"/>
    <path class="st43" d="M143.44,6.46v7.68h-.16c0-.25-.05-.53-.15-.83-.1-.31-.27-.66-.52-1.05l-3.6-5.8h-5.24v16.56h5.3v-7.68h.16c0,.23.05.5.16.81.11.31.27.67.5,1.07l3.6,5.8h5.24V6.46h-5.3Z"/>
  </g>
</svg>