<svg xmlns="http://www.w3.org/2000/svg" width="128" height="128" viewBox="0 0 33.867 33.867" xmlns:v="https://vecta.io/nano"><g transform="scale(.71111111)"><circle cx="23.813" cy="23.813" r="23.813"/><path d="M47.362 20.255l-.005-.03-.132.005-.004.044-.044.002c-.057.739-.178 1.441-.359 2.086a15.69 15.69 0 0 1-2.094 4.517c-1.002 1.467-2.169 2.554-3.375 3.143-.752.369-1.498.639-2.216.804a7.45 7.45 0 0 1-1.632.189c-1.819 0-3.486-.766-4.822-2.214-2.064-2.239-3.259-6.088-2.975-9.579.099-1.221.294-2.357.483-3.456.401-2.332.747-4.345.1-6.45-.347-1.128-1.079-2.002-2.064-2.463-.671-.314-1.371-.473-2.082-.473-2.287 0-4.174 1.611-5.094 2.99-1.405 2.106-2.105 4.758-1.919 7.274.173 2.355.99 3.908 2.215 6.01.614 1.053 1.254 1.984 1.82 2.806.956 1.391 1.782 2.592 2.19 3.909.565 1.826.172 2.704-.023 2.998-.241.362-.628.571-1.151.62a1.88 1.88 0 0 1-.196.009c-1.596 0-1.627-2.179-1.645-3.482v-.029l-.004-.246c-.054-2.552-1.035-4.077-2.276-6.008-.779-1.212-1.662-2.584-2.438-4.454-1.24-2.987-1.552-5.868-.925-8.563l.07-.29c.761-2.999 2.642-6.841 7.279-8.107a10.17 10.17 0 0 1 2.68-.362c2.726 0 5.101 1.122 6.514 3.078 1.144 1.582 1.734 3.376 1.804 5.483.017.501.004 1.026-.039 1.56-.1 1.205-.355 2.526-.779 4.038-.857 3.056-1.065 5.645-.616 7.694.344 1.572 1.096 2.769 2.061 3.284.783.417 1.617.629 2.479.629 2.202 0 4.208-1.405 5.22-2.797 1.591-2.189 2.429-6.049 2.292-8.37-.05-.852-.123-1.573-.223-2.211l-.003-.009-.002-.005c-1.882-4.07-4.867-7.52-8.633-9.977A23.73 23.73 0 0 0 23.813 0C17.452 0 11.472 2.476 6.974 6.974A23.66 23.66 0 0 0 0 23.812c0 1.849.213 3.693.635 5.483l.007.031.133-.019s-.002-.039-.003-.042l.044-.007c-.082-1.417.047-2.782.372-3.947a15.71 15.71 0 0 1 2.094-4.517c1.002-1.466 2.169-2.554 3.375-3.143.747-.366 1.489-.635 2.204-.801.562-.128 1.116-.192 1.646-.192 1.819 0 3.487.765 4.822 2.213 2.064 2.239 3.259 6.088 2.975 9.58-.099 1.222-.294 2.357-.484 3.456-.401 2.332-.747 4.345-.1 6.45.346 1.128 1.079 2.002 2.064 2.463.671.314 1.371.473 2.082.473 2.287 0 4.174-1.611 5.094-2.991 1.405-2.106 2.105-4.758 1.919-7.274-.173-2.355-.99-3.908-2.215-6.011-.612-1.051-1.254-1.983-1.819-2.806-.956-1.391-1.782-2.592-2.19-3.91-.565-1.826-.172-2.704.022-2.997.241-.362.628-.571 1.151-.62a1.89 1.89 0 0 1 .196-.009c1.596 0 1.627 2.178 1.645 3.478l.001.037.004.242c.054 2.552 1.035 4.077 2.276 6.008.779 1.212 1.662 2.585 2.438 4.454 1.201 2.892 1.531 5.687.981 8.309l-.048.217c-.728 3.13-2.596 7.134-7.359 8.435-.878.24-1.78.361-2.68.362-2.726 0-5.101-1.122-6.514-3.077-1.144-1.582-1.733-3.376-1.804-5.483a13.66 13.66 0 0 1 .002-.938c.055-1.372.323-2.896.817-4.66.857-3.056 1.065-5.645.616-7.694-.344-1.573-1.095-2.769-2.061-3.284a5.22 5.22 0 0 0-2.479-.629c-2.201 0-4.208 1.405-5.22 2.797-1.591 2.189-2.429 6.049-2.292 8.37.085 1.442.231 2.502.477 3.442l.003.008.002.004c4.16 7.74 12.203 12.55 20.984 12.55 6.361 0 12.341-2.477 16.838-6.974s6.974-10.478 6.974-16.839a24.03 24.03 0 0 0-.265-3.558z" fill="#e6fa36"/></g></svg>