<?xml version="1.0" encoding="utf-8"?>
<!-- Generator: Adobe Illustrator 25.0.0, SVG Export Plug-In . SVG Version: 6.00 Build 0)  -->
<svg version="1.1" id="Layer_1" xmlns="http://www.w3.org/2000/svg" xmlns:xlink="http://www.w3.org/1999/xlink" x="0px" y="0px"
	 viewBox="0 0 256 75" style="enable-background:new 0 0 256 75;" xml:space="preserve">
<style type="text/css">
	.st0{fill:#000000;}
	.st1{fill:#00B3ED;}
</style>
<g>
	<path id="Path_61" class="st0" d="M4.7,69.9V15.2h28.8c10.4,0,15.8,6.7,15.8,14c0,6.9-4.3,11.5-9.4,12.6
		c5.8,0.9,10.5,6.6,10.5,13.5c0,8.2-5.5,14.8-15.9,14.8L4.7,69.9z M37.4,31.2c0-3.4-2.5-6-6.4-6H16.4v11.9H31
		C34.9,37.1,37.4,34.6,37.4,31.2 M38.5,53.5c0-3.5-2.5-6.4-7.1-6.4h-15v12.7h15C35.8,59.8,38.5,57.5,38.5,53.5"/>
	<path id="Path_62" class="st0" d="M59.2,69.9V15.2H98v10.3H70.9V37h26.5v10.3H70.9v12.4H98v10.3H59.2z"/>
	<path id="Path_63" class="st0" d="M144.9,69.9l-26.1-35.7v35.7h-11.7V15.2h12l25.4,34.4V15.2h11.7v54.8H144.9z"/>
	<rect id="Rectangle_48" x="236.9" y="33.9" class="st0" width="14.4" height="36"/>
	<path id="Path_64" class="st1" d="M236.9,29.5l12.8-5.6c0.9-0.4,1.6-1.3,1.6-2.4v-6.4h-0.1l-12.2,5.3c-1.3,0.6-2.2,1.9-2.2,3.3
		V29.5z"/>
	<path id="Path_65" class="st0" d="M177,33.7c2.4-10.8,13-17.6,23.8-15.2c9.2,2,15.7,10.1,15.7,19.5c0,1.2-0.1,2.5-0.4,3.7l6.7,14.6
		c10.3-14.6,6.8-34.9-7.8-45.2s-34.9-6.8-45.2,7.8c-10.3,14.6-6.8,34.9,7.8,45.2c7,4.9,15.7,6.9,24.1,5.5l-5.2-11.5
		c-11,0-20-9-19.9-20.1C176.5,36.5,176.7,35.1,177,33.7"/>
	<path id="Path_66" class="st1" d="M222.9,69.9h-15l-9.4-21h14.9L222.9,69.9z"/>
</g>
</svg>
