<?xml version="1.0" encoding="utf-8"?>
<!-- Generator: Adobe Illustrator 24.3.0, SVG Export Plug-In . SVG Version: 6.00 Build 0)  -->
<svg version="1.1" id="katman_1" xmlns="http://www.w3.org/2000/svg" xmlns:xlink="http://www.w3.org/1999/xlink" x="0px" y="0px"
	 viewBox="0 0 207.05 167.89" style="enable-background:new 0 0 207.05 167.89;" xml:space="preserve">
<style type="text/css">
	.st0{fill:#E30613;}
	.st1{fill:#E30613;stroke:#E30613;stroke-width:8;stroke-linejoin:round;stroke-miterlimit:10;}
	.st2{fill:#FFFFFF;}
</style>
<g>
	<g>
		<g>
			<circle class="st0" cx="103.52" cy="66.28" r="49.79"/>
		</g>
		<g>
			<g>
				<path class="st1" d="M92.29,57.62c-1.49-1.51-3.18-2.81-5.02-3.88v8.55c3.1,3.05,5.02,7.3,5.02,11.99v0.06
					c-0.01,3.44-1.05,6.64-2.84,9.3c1.22,2.01,2.89,3.71,4.87,4.96c3.01-3.96,4.8-8.91,4.81-14.26v-0.06
					C99.14,67.8,96.53,61.9,92.29,57.62z M81.31,90.09c-1.82,0.68-3.8,1.05-5.86,1.05c-9.31,0-16.85-7.54-16.85-16.85
					s7.54-16.85,16.85-16.85c0.5,0,0.98,0.02,1.46,0.07v-6.88c-0.48-0.03-0.97-0.04-1.46-0.04c-13.09,0-23.7,10.61-23.7,23.7
					c0,13.09,10.61,23.7,23.7,23.7c3.86,0,7.51-0.92,10.73-2.56C84.32,93.89,82.67,92.09,81.31,90.09z"/>
				<rect x="92.29" y="38.29" class="st1" width="6.85" height="36.05"/>
				<g>
					<path class="st1" d="M127.23,24.55c-13.09,0-23.7,10.61-23.7,23.7c0,6.5,2.61,12.39,6.86,16.67c2.03,2.04,4.42,3.73,7.08,4.93
						v-7.88c-4.29-3.05-7.08-8.06-7.08-13.73c0-9.3,7.54-16.85,16.85-16.85c9.3,0,16.85,7.54,16.85,16.85
						c0,9.11-7.22,16.53-16.25,16.83v6.87c12.82-0.32,23.11-10.81,23.11-23.7C150.93,35.16,140.32,24.55,127.23,24.55z"/>
					
						<rect x="103.52" y="48.25" transform="matrix(-1 -1.224647e-16 1.224647e-16 -1 213.9023 132.5589)" class="st1" width="6.85" height="36.05"/>
				</g>
			</g>
			<path class="st1" d="M85.51,43.6v6.33v25.91h0.01c0,9.3,7.54,16.85,16.85,16.85c9.3,0,16.85-7.54,16.85-16.85V52.79h6.85v23.05
				v3.91v23.05c0,3.22-0.64,6.29-1.81,9.09c-3.56,8.58-12.02,14.61-21.89,14.61c-6.91,0-13.13-2.95-17.46-7.67
				c-1.57-1.71-2.9-3.65-3.92-5.77l5.28-5.28c0.72,2.32,1.92,4.43,3.49,6.2c3.08,3.48,7.59,5.67,12.61,5.67
				c9.3,0,16.85-7.54,16.85-16.85V92.5c-4.3,4.34-10.26,7.04-16.85,7.04c-12.47,0-22.67-9.62-23.62-21.84h-0.08V50.75
				c0-0.27,0.01-0.55,0.02-0.82h-0.02V43.6H85.51z"/>
			<path class="st1" d="M85.51,43.6v6.33v25.91h0.01c0,9.3,7.54,16.85,16.85,16.85c9.3,0,16.85-7.54,16.85-16.85V52.79h6.85v23.05
				v3.91v23.05c0,3.22-0.64,6.29-1.81,9.09c-3.56,8.58-12.02,14.61-21.89,14.61c-6.91,0-13.13-2.95-17.46-7.67
				c-1.57-1.71-2.9-3.65-3.92-5.77l5.28-5.28c0.72,2.32,1.92,4.43,3.49,6.2c3.08,3.48,7.59,5.67,12.61,5.67
				c9.3,0,16.85-7.54,16.85-16.85V92.5c-4.3,4.34-10.26,7.04-16.85,7.04c-12.47,0-22.67-9.62-23.62-21.84h-0.08V50.75
				c0-0.27,0.01-0.55,0.02-0.82h-0.02V43.6H85.51z"/>
		</g>
		<g>
			<g>
				<path class="st2" d="M92.29,57.62c-1.49-1.51-3.18-2.81-5.02-3.88v8.55c3.1,3.05,5.02,7.3,5.02,11.99v0.06
					c-0.01,3.44-1.05,6.64-2.84,9.3c1.22,2.01,2.89,3.71,4.87,4.96c3.01-3.96,4.8-8.91,4.81-14.26v-0.06
					C99.14,67.8,96.53,61.9,92.29,57.62z M81.31,90.09c-1.82,0.68-3.8,1.05-5.86,1.05c-9.31,0-16.85-7.54-16.85-16.85
					s7.54-16.85,16.85-16.85c0.5,0,0.98,0.02,1.46,0.07v-6.88c-0.48-0.03-0.97-0.04-1.46-0.04c-13.09,0-23.7,10.61-23.7,23.7
					c0,13.09,10.61,23.7,23.7,23.7c3.86,0,7.51-0.92,10.73-2.56C84.32,93.89,82.67,92.09,81.31,90.09z"/>
				<rect x="92.29" y="38.29" class="st2" width="6.85" height="36.05"/>
				<g>
					<path class="st2" d="M127.23,24.55c-13.09,0-23.7,10.61-23.7,23.7c0,6.5,2.61,12.39,6.86,16.67c2.03,2.04,4.42,3.73,7.08,4.93
						v-7.88c-4.29-3.05-7.08-8.06-7.08-13.73c0-9.3,7.54-16.85,16.85-16.85c9.3,0,16.85,7.54,16.85,16.85
						c0,9.11-7.22,16.53-16.25,16.83v6.87c12.82-0.32,23.11-10.81,23.11-23.7C150.93,35.16,140.32,24.55,127.23,24.55z"/>
					
						<rect x="103.52" y="48.25" transform="matrix(-1 -1.224647e-16 1.224647e-16 -1 213.9023 132.5589)" class="st2" width="6.85" height="36.05"/>
				</g>
			</g>
			<path class="st2" d="M85.51,43.6v6.33v25.91h0.01c0,9.3,7.54,16.85,16.85,16.85c9.3,0,16.85-7.54,16.85-16.85V52.79h6.85v23.05
				v3.91v23.05c0,3.22-0.64,6.29-1.81,9.09c-3.56,8.58-12.02,14.61-21.89,14.61c-6.91,0-13.13-2.95-17.46-7.67
				c-1.57-1.71-2.9-3.65-3.92-5.77l5.28-5.28c0.72,2.32,1.92,4.43,3.49,6.2c3.08,3.48,7.59,5.67,12.61,5.67
				c9.3,0,16.85-7.54,16.85-16.85V92.5c-4.3,4.34-10.26,7.04-16.85,7.04c-12.47,0-22.67-9.62-23.62-21.84h-0.08V50.75
				c0-0.27,0.01-0.55,0.02-0.82h-0.02V43.6H85.51z"/>
			<path class="st2" d="M85.51,43.6v6.33v25.91h0.01c0,9.3,7.54,16.85,16.85,16.85c9.3,0,16.85-7.54,16.85-16.85V52.79h6.85v23.05
				v3.91v23.05c0,3.22-0.64,6.29-1.81,9.09c-3.56,8.58-12.02,14.61-21.89,14.61c-6.91,0-13.13-2.95-17.46-7.67
				c-1.57-1.71-2.9-3.65-3.92-5.77l5.28-5.28c0.72,2.32,1.92,4.43,3.49,6.2c3.08,3.48,7.59,5.67,12.61,5.67
				c9.3,0,16.85-7.54,16.85-16.85V92.5c-4.3,4.34-10.26,7.04-16.85,7.04c-12.47,0-22.67-9.62-23.62-21.84h-0.08V50.75
				c0-0.27,0.01-0.55,0.02-0.82h-0.02V43.6H85.51z"/>
		</g>
	</g>
	<g>
		<g>
			<path d="M38.15,95.3c-3.55,0.81-6.22-0.61-7.16-4.72l-0.81-3.53l11.56-2.65l0.81,3.53C43.49,92.05,41.68,94.49,38.15,95.3z
				 M37.77,93.62c2.89-0.66,3.8-2.45,3.13-5.38l-0.42-1.83l-8.3,1.9l0.42,1.83C33.26,93.07,34.88,94.28,37.77,93.62z"/>
			<path d="M38.17,106.43l-1.53,0.64l-2.93-6.96l10.93-4.6l2.91,6.92l-1.55,0.65l-2.26-5.37L40.67,99l2.11,5.01l-1.55,0.65
				l-2.11-5.01l-3.23,1.36L38.17,106.43z"/>
			<path d="M47.96,106.49l-2.84,1.75l2.9,4.72l-1.43,0.88l-2.9-4.72l-4.4,2.7l-0.88-1.43l10.1-6.21l3.93,6.39l-1.43,0.88
				L47.96,106.49z"/>
			<path d="M54.82,113.5l-9.33,7.32l-1.04-1.32l9.34-7.32L54.82,113.5z"/>
			<path d="M66.57,125.04l-8.07,2.38L55.37,131l-1.68-1.47l3.12-3.57l1.3-8.32l1.9,1.66l-1.13,5.99l5.8-1.9L66.57,125.04z"/>
			<path d="M69.86,126.98l-6.56,9.88l-1.85-1.23l6.56-9.88L69.86,126.98z"/>
			<path d="M74.53,140.62l-0.96,1.89l-6.84-3.48l5.37-10.57l6.78,3.45l-0.96,1.89l-4.8-2.44l-1.24,2.45l4.49,2.28l-0.96,1.89
				l-4.49-2.28l-1.25,2.46L74.53,140.62z"/>
			<path d="M84.98,144.29l-0.66,2.01l-7.29-2.41l3.72-11.26l2.12,0.7l-3.05,9.25L84.98,144.29z"/>
			<path d="M98.84,142.83c-0.55,3.7-2.74,5.59-7.14,4.93l-3.8-0.57l1.75-11.73l3.8,0.57C97.85,136.69,99.39,139.11,98.84,142.83z
				 M92.01,145.66c3.25,0.49,4.28-0.92,4.62-3.16c0.34-2.26-0.24-3.89-3.49-4.38l-1.61-0.24l-1.13,7.54L92.01,145.66z"/>
			<path d="M114.47,140.14c0.22,2.46-1.22,4.14-3.99,4.39l-1.84,0.17l0.35,3.79l-3.05,0.28l-1.08-11.8l4.89-0.45
				C112.52,136.27,114.25,137.66,114.47,140.14z M111.56,140.41c-0.08-0.91-0.72-1.33-1.73-1.24l-1.67,0.15l0.25,2.75l1.67-0.15
				C111.09,141.83,111.64,141.3,111.56,140.41z"/>
			<path d="M122.06,142.39l-1.57,0.42l0.99,3.68l-2.96,0.8l-3.08-11.45l4.74-1.27c2.68-0.72,4.62,0.35,5.27,2.76
				c0.4,1.5,0.11,2.81-0.85,3.77l3.6,3.59l-3.12,0.84L122.06,142.39z M119.8,140.26l1.62-0.43c0.98-0.26,1.43-0.88,1.2-1.74
				c-0.24-0.88-0.93-1.19-1.91-0.92l-1.62,0.43L119.8,140.26z"/>
			<path d="M138.81,133.31c1.47,3.05,0.89,6.38-2.82,8.16c-3.71,1.79-6.65,0.16-8.14-2.88c-1.46-3.06-0.91-6.41,2.8-8.19
				C134.36,128.61,137.34,130.26,138.81,133.31z M135.97,134.68c-0.95-1.97-2.52-2.58-4.12-1.81c-1.6,0.77-2.1,2.39-1.15,4.35
				c0.94,1.95,2.52,2.57,4.12,1.79C136.41,138.25,136.92,136.63,135.97,134.68z"/>
			<path d="M145.51,124.68l-2.46,1.78l5.25,7.27l-2.49,1.79l-5.25-7.26l-2.46,1.78l-1.7-2.35l7.4-5.35L145.51,124.68z"/>
			<path d="M156.95,117.52c2.44,2.35,3.05,5.67,0.2,8.63c-2.85,2.96-6.18,2.46-8.63,0.12c-2.43-2.36-3.08-5.69-0.22-8.65
				C151.15,114.66,154.51,115.17,156.95,117.52z M154.77,119.79c-1.57-1.52-3.26-1.54-4.5-0.26s-1.14,2.97,0.43,4.48
				c1.56,1.5,3.25,1.53,4.48,0.25C156.42,122.98,156.33,121.29,154.77,119.79z"/>
			<path d="M159.78,113.3c2.15,1.41,3.68,0.5,4.5-0.76c0.73-1.12,0.96-2.31,0.98-3.35c0.79,0.52,2.54,1.66,2.54,1.66
				c-0.12,1.05-0.54,2.26-1.2,3.26c-2.14,3.27-5.38,3.95-8.57,1.86c-3.18-2.08-3.87-5.32-1.72-8.6c0.66-1.01,1.59-1.88,2.51-2.41
				c0,0,1.76,1.15,2.55,1.67c-0.95,0.43-1.96,1.11-2.69,2.23C157.84,110.13,157.62,111.89,159.78,113.3z"/>
			<path d="M169.05,94.97c3.13,1.3,4.91,4.17,3.33,7.97s-4.86,4.55-8,3.26c-3.12-1.32-4.94-4.18-3.36-7.98
				C162.6,94.41,165.92,93.67,169.05,94.97z M167.84,97.87c-2.02-0.84-3.6-0.25-4.28,1.39s0.02,3.18,2.03,4.02
				c2,0.83,3.59,0.24,4.27-1.4C170.54,100.24,169.84,98.71,167.84,97.87z"/>
			<path d="M174.29,85.21l2.83,0.62l-1.76,8.02l-11.58-2.54l0.66-2.99l8.75,1.92L174.29,85.21z"/>
		</g>
	</g>
</g>
</svg>
