<svg xmlns="http://www.w3.org/2000/svg" fill="#FF6B00" viewBox="0 0 1034 295"><path d="M439.13 79.1c-8.36-6.3-19.83-9.47-34.13-9.47h-41.67v140.88h17.24v-63.96H405c14.3 0 25.78-3.22 34.14-9.55 8.5-6.45 12.79-16.2 12.79-29s-4.31-22.52-12.8-28.9zm-7.25 37.73a17.35 17.35 0 01-5.17 6.93c-2.4 2-5.73 3.63-9.83 4.84-4.18 1.25-9.35 1.88-15.38 1.88h-20.93V85.7h20.93c6.05 0 11.22.6 15.41 1.79 4.1 1.16 7.4 2.78 9.79 4.82a17.92 17.92 0 015.18 7.05 23.13 23.13 0 011.64 8.64c0 3.14-.55 6.12-1.64 8.83zM537.36 199.32c-.32-3.74-.49-7.39-.49-10.84v-40.63c0-5.77-.95-10.84-2.86-15.05a31.06 31.06 0 00-7.6-10.56c-3.14-2.8-6.9-4.91-11.18-6.27a43.5 43.5 0 00-13.22-2.03c-17.48 0-30.83 4.62-39.66 13.7l-1.03 1.06 9.82 11.54 1.23-1.12a38.8 38.8 0 0126.72-10.27c14.62 0 21.71 7.16 21.71 21.9v.71H516c-5.42 0-11.51.26-18.1.78a72.8 72.8 0 00-18.9 3.99 36.83 36.83 0 00-15.04 9.86c-4.08 4.5-6.15 10.73-6.15 18.49 0 4.65.94 8.8 2.82 12.33a27.38 27.38 0 007.44 8.88 31.6 31.6 0 0010.54 5.33 43.39 43.39 0 0012.12 1.71c7.62 0 14.18-1.4 19.5-4.16 4.27-2.2 8.11-5.57 11.45-10.03.05 1.05.11 2.1.2 3.18.19 2.64.5 5.12.88 7.35l.25 1.34h15.7l-.3-1.87c-.38-2.45-.72-5.6-1.05-9.32zm-42.53-1.38a32.7 32.7 0 01-7.3-.82 19.64 19.64 0 01-6.39-2.7 13.84 13.84 0 01-4.44-4.69 13.56 13.56 0 01-1.64-6.87c0-4.07 1.37-7.14 4.17-9.45A29.44 29.44 0 01490.1 168a69.26 69.26 0 0113.67-2.29c4.85-.32 8.9-.48 12.04-.48h5v4.99c0 3.84-.54 7.5-1.58 10.88a23.9 23.9 0 01-4.83 8.75 23.82 23.82 0 01-8.1 5.92c-3.2 1.44-7.06 2.18-11.47 2.18zM600.96 113.96c-3.1 0-6.3.44-9.47 1.33-3.15.87-6.18 2.1-9 3.64a37.52 37.52 0 00-7.7 5.6 34.24 34.24 0 00-3.15 3.38c-.02-.93-.03-1.83-.07-2.74a89.9 89.9 0 00-.5-7.42l-.15-1.46H554.5l.13 1.75c.25 3.39.48 6.97.68 10.66.2 3.71.29 6.82.29 9.25v72.58h16.07v-48.28c0-7.98 1.25-14.25 3.68-18.64 2.46-4.43 5.28-7.78 8.36-9.97 3.1-2.18 6.04-3.53 8.78-4 3.8-.66 4.86-.76 5.17-.76 8.83 0 14.92 2.46 18.08 7.34 3.3 5.09 5 12.6 5 22.34v51.97h16.06v-59.36c0-11.76-2.94-21-8.78-27.43-5.86-6.5-14.97-9.78-27.06-9.78zM733.13 128.94a42.76 42.76 0 00-6.14-5.81 44.95 44.95 0 00-9.38-5.56 43.4 43.4 0 00-9.5-2.83 53.4 53.4 0 00-8.92-.8 48.65 48.65 0 00-19.2 3.73 45.36 45.36 0 00-15.12 10.38 49.41 49.41 0 00-13.56 34.56c0 6.8 1.28 13.23 3.83 19.1a46.18 46.18 0 0010.48 15.21 48.96 48.96 0 0015.59 9.95 50.87 50.87 0 0019.16 3.61c6.8 0 13.37-1.36 19.51-4.01a35.09 35.09 0 0013.29-10.3v11.92c0 4.74-.6 9.28-1.79 13.46a28.07 28.07 0 01-5.7 10.76 27.29 27.29 0 01-10.37 7.24c-4.32 1.78-9.67 2.69-15.9 2.69-7.1 0-13.63-1.48-19.4-4.4a39.66 39.66 0 01-14.12-11.66l-1.15-1.55-11.89 12.62 1.04 1.12c5.96 6.34 12.69 11.13 20 14.19 7.28 3.04 15.68 4.6 24.93 4.6 10.43 0 19.05-1.62 25.6-4.83 6.54-3.2 11.74-7.29 15.44-12.14 3.7-4.82 6.2-10.2 7.48-15.98a75.36 75.36 0 001.88-16.1v-91.84h-16.07v12.67h-.02zm-32.4 66.67c-4.54 0-8.8-.9-12.64-2.67a33.57 33.57 0 01-10.2-7.23 33.51 33.51 0 01-9.37-23.47 33.62 33.62 0 019.36-23.48 33.18 33.18 0 0110.21-7.22 30.16 30.16 0 0112.64-2.68c5.05 0 9.67.91 13.74 2.7a31.5 31.5 0 0110.35 7.2 31.1 31.1 0 016.47 10.53 37.56 37.56 0 012.23 13c.13 5.07-.64 9.68-2.31 13.73a29.42 29.42 0 01-7.1 10.42 33.82 33.82 0 01-23.38 9.17zM848.06 128.04a47.55 47.55 0 00-15.8-10.37 53.39 53.39 0 00-20.15-3.71 52.85 52.85 0 00-19.96 3.7 47.55 47.55 0 00-15.8 10.38c-4.4 4.4-7.9 9.69-10.37 15.7a51.53 51.53 0 00-3.73 19.66c0 7.05 1.25 13.68 3.73 19.67a47.45 47.45 0 0010.37 15.7 47.3 47.3 0 0015.8 10.37 52.85 52.85 0 0019.96 3.7c7.3 0 14.08-1.24 20.15-3.7a47.3 47.3 0 0015.8-10.37c4.4-4.4 7.9-9.69 10.37-15.7a51.58 51.58 0 003.73-19.67c0-7.04-1.25-13.65-3.73-19.66a47.78 47.78 0 00-10.37-15.7zm-35.95 69.9c-5.06 0-9.64-.9-13.63-2.67a29.74 29.74 0 01-10.14-7.29 33.25 33.25 0 01-6.48-10.95 39.43 39.43 0 01-2.33-13.63c0-4.84.77-9.43 2.33-13.64a33.87 33.87 0 016.48-10.95 30.06 30.06 0 0110.14-7.29 33.2 33.2 0 0113.63-2.67c5.05 0 9.64.9 13.62 2.67a31.24 31.24 0 0110.26 7.29 32.58 32.58 0 016.58 10.94 39.59 39.59 0 012.33 13.64c0 4.84-.78 9.43-2.33 13.62a32.58 32.58 0 01-6.58 10.94 30.78 30.78 0 01-10.26 7.29 32.84 32.84 0 01-13.62 2.7zM893.46 60.3h-16.08v150.22h16.08V60.3zM931.8 75a10.96 10.96 0 00-7.5-3.05c-2.74 0-5.27 1.02-7.5 3.04a10.18 10.18 0 00-3.46 7.91c0 3.2 1.17 5.85 3.45 7.9a10.96 10.96 0 007.5 3.05c2.75 0 5.27-1.02 7.5-3.04a10.24 10.24 0 003.46-7.9c0-3.18-1.17-5.84-3.45-7.92zM932.34 116.3h-16.07v94.22h16.07v-94.23zM997.6 113.96c-3.11 0-6.3.44-9.48 1.33-3.14.87-6.17 2.1-8.99 3.64a37.55 37.55 0 00-7.71 5.6 34.24 34.24 0 00-3.14 3.38l-.07-2.74a89.9 89.9 0 00-.5-7.42l-.15-1.46h-16.43l.13 1.75c.26 3.39.49 6.97.68 10.66.2 3.71.3 6.82.3 9.25v72.58h16.07v-48.28c0-7.98 1.25-14.25 3.68-18.64 2.46-4.43 5.28-7.78 8.36-9.97 3.09-2.18 6.04-3.53 8.78-4 3.79-.66 4.86-.76 5.17-.76 8.83 0 14.92 2.46 18.08 7.34 3.3 5.09 4.99 12.6 4.99 22.34v51.97h16.07v-59.36c0-11.76-2.95-21-8.78-27.43-5.87-6.5-14.97-9.78-27.06-9.78zM58.45 216.2c.68 1.23 1.1 2.13 1.28 2.53 4.25 8.24 9.46 16.55 16.59 21.27l.7.44c8.06 4.99 22.5 9.31 37.35 11.7.99-11.46 7.86-21.85 14.67-29.5a95.5 95.5 0 01-27.44 4.06 93.47 93.47 0 01-43.15-10.5zM172.12 172.59c-8.47-2.73-21.16-15.44-40.43-10.83-15.9 3.8-20.67 14.88-23.2 18.91-5.93-5.84-12.22-9.8-17.44-10.7-3.97-.67-6.57.54-8.06 1.66-2.7 2.06-2.77 2.13 15.22 39.56l1.5 3.11c.02.06.07.1.1.16l1.62 3.34s1.03 3.5 7.01 1.84c0 0 41.42-3.96 57.18-32.62a286.86 286.86 0 006.5-14.44zM8.32 122.56c.13-2.4-.03-7.75-3.47-10.5a137.69 137.69 0 00-4.74 31.15A16.8 16.8 0 019 146.89c-.77-4.95-2.4-13.33-.67-24.33zM164.3 248.1c-6.76-7.32-7.91-21.01-3.39-40.88.36-1.56.75-3.11 1.14-4.64-6.43 6.89-17.15 13.62-23.74 20-7.29 7.06-16.47 18.36-17.35 30.49 7.77.94 15.41 1.39 22.07.9 12.8-.94 18.96-4.84 21.27-5.87zM242.35 75.62a59.76 59.76 0 018 13.03c4.62 8.7 19.69 33.45 39.58 28.71a174.48 174.48 0 00-4.7-21.13c-.14-.42-.28-.84-.44-1.27l.07-.02c-2-6.68-4.5-13.4-7.57-20.05-11.42 4.78-24.85 3.24-34.94.73zM221.62 24.48a3.33 3.33 0 01.83 3.72c-4.93 11.9-16.15 21.7-25.75 28.34 8.8-.13 20.44 1.6 34.07 8.22 4.35 1.84 27.06 10.8 43.6 4.16-.05-.09-.12-.2-.16-.3-.33-.64-.69-1.27-1.03-1.9a143.62 143.62 0 00-47.55-50.24A119.98 119.98 0 00178.26 0a42.24 42.24 0 01-2.56 24.54c25.38-11.14 38.9-6.48 45.92-.06zM170.88 245.1a394.62 394.62 0 0030.58-15.65c-.67-.27-1.29-.56-1.86-.87-12.33-6.74-19.23-29.94-22.34-50.21a72.2 72.2 0 01-1.4 3.41 198.8 198.8 0 00-8.45 27c-5.38 23.63-1.34 32.84 3.47 36.31zM250.64 128.26c-15.5 8.61-30.77 12.94-45.65 12.94a75.82 75.82 0 01-24.58-4.1c2.75 11.04.74 22.17 2.36 32.23.75.26 1.52.53 2.3.77 22.85 7.49 40.6 8.79 51.33 3.76a20.56 20.56 0 007.53-5.87c7.5-9.45 7.05-29.18 6.7-39.73z" fill="#FF6B00"/><path d="M214.72 221.1l.02.03c15.93-9.4 25.5-31.11 28.86-43.75-1.35.94-2.8 1.78-4.37 2.52-5.49 2.57-11.97 3.63-18.9 3.63-11.8 0-24.9-3.06-36.58-6.83 2.98 19.53 9.5 40.81 19.06 46.04 3.57 1.95 7.47 1.42 11.91-1.64zM178.7 129.37a74.29 74.29 0 008.33 2.8c20.11 5.38 41.4 1.55 63.3-11.4-.22-12.1-2.58-21.69-6.02-29.29-.93-1.78-1.43-2.9-1.5-3.04h.01a50.44 50.44 0 00-15.96-18.15c-14.86-6.98-27.03-7.6-34.99-6.71 22.76 8.95 26.64 21.84 26.82 22.46l.16.54a2.63 2.63 0 01-1.36 3.07l-.5.25c-21.88 11.08-42.58 4.89-53.89-.42 3.33 7.87 7.75 18.39 9.47 22.46l.04-.02c.71 1.62 1.4 3.31 2.08 5.06l.04.1c1.47 3.86 2.83 7.96 3.96 12.29zM252.87 225.6c-5.85-8.44-7.77-20.73-8.05-32.03-2.03 4.79-4.14 9.06-6.17 12.73l.01.01c-.3.7-.67 1.38-1.09 2.08-3.4 6.68-14.38 30.08-9.28 45.11 1.48 4.38 4.2 7.6 8.26 9.79 4.13-3.05 16.14-12.6 27.84-28.6a23.66 23.66 0 01-11.52-9.08zM29.54 192.73c-7.56-9.9-13.02-18.42-15.77-27.4-1.51-4.94-6.61-14.24-13.77-15.38.1 14.58 2.35 28.66 6.45 41.94 8.97-1.52 16.63-.94 23.09.84z" fill="#FF6B00"/><path d="M221.97 255.62c-3.47-10.28-.9-23.15 2.6-33.56a118.57 118.57 0 01-6.11 4.5l.02.03-1.08.68a185.68 185.68 0 01-7.82 5.05l.02.03c-1.56.97-37.54 23.73-20.37 56.22a145.85 145.85 0 0041.9-20.81 23.14 23.14 0 01-9.16-12.14zM290.85 123.98c-2.01.43-4.02.66-6.02.66-9.88 0-19.66-5.29-28.68-15.62a.56.56 0 00-.08-.09c.61 4.32.93 8.86.93 13.58.1 1.4.18 2.8.24 4.19.7 7.93 3.46 25.53 14.15 34.97 5.21 4.61 11.8 6.71 19.63 6.29.07-.31.14-.67.2-1.04a146.7 146.7 0 001.11-18.03c.01-7.53-.38-15.96-1.48-24.91z" fill="#FF6B00"/><path d="M266.97 166.64c-4.86-4.3-8.3-9.85-10.73-15.57a156.5 156.5 0 01-2.84 15.99c-.87 5.13-6.01 38.98 4.94 54.76 2.62 3.79 5.91 6.12 10.02 7.14a139.73 139.73 0 0012.86-24.3l.04.02c3.96-9.55 6.95-19.6 8.81-30.03-9.05.23-16.8-2.45-23.1-8.01zM60.63 233.3a112.82 112.82 0 01-8.57-15.05c-4.17-7.29-16.8-23.95-43.45-19.97a146.37 146.37 0 0022.94 41.19c7.95-8.38 19.15-8.72 29.08-6.17zM144.92 260.57c-9.72.81-21.12-.02-32.16-1.89-8.06-.85-30.53-1.68-46.25 12.7a145.24 145.24 0 0061.2 22.52c-.27-9.79 4.27-19.9 13.3-29.46 1.3-1.4 2.62-2.68 3.9-3.87zM73.13 245.86c-3.67-2.2-25.38-14.35-37.1-1.47 3.24 3.99 11.63 13.47 24.9 23.11 8.63-8.43 19.03-12.58 28.53-14.47a65.43 65.43 0 01-16.33-7.17zM187.4 244.5c-8.2 4.12-30.28 11.59-42.91 26.01-5.66 6.46-10.62 14.73-10.1 23.87 4.46.49 14.67 1.22 28-.24l1.96-.22.8-.1c5.96-.77 11.82-1.9 17.55-3.38-9.31-18.76-3.49-34.69 4.7-45.94zM57.8 169.46c.41.32 1.12.78 3.42.78 2.76 0 7.82-.67 17.44-3.11 8.3-2.1 20.8-5.85 34.75-12 1.55-.72 5.5-2.64 10.06-4.9 1.52 1.7 2.84 3.7 3.7 6.06 26-5.68 35.89 5.6 46.77 9.82 2.23-10.62 1.87-24.53-.84-31.88-25.26-11.28-41.35-33.17-47.29-42.44-5.94 4.62-14.8 10.77-20.18 21.65-10.94 22.12-22.48 42.01-43.1 48.35-3.53 1.09-5.83 1.96-6.13 4.52a3.53 3.53 0 001.4 3.15z" fill="#FF6B00"/><path d="M75.26 122.46c6.03-4.34 16.9-12.1 20.7-15.22 6.92-5.69 26.05-20.8 30.87-24.61a1.16 1.16 0 011.76.4c14.9 29.65 42.11 42.59 42.11 42.59-1.17-3.62-2.57-7.3-4.2-11.04l.03-.01-5.7-13.45-3.6-8.49c-2.04-4.77-3.62-8.5-4.08-9.52l-4.34-9.93c-.14-.33.24-.63.54-.42l8.8 6.33c.25.18 25.63 17.91 52.85 6.27-2.76-4.4-10.9-13.6-32.66-19.13l-7.43-1.89c-.53-.13-.6-.86-.1-1.1l6.93-3.26c.29-.13 28.06-13.37 37.5-32.08-12.42-8.5-34.1.8-46.32 7.34l-13.93 7.48c-.33.17-.66-.24-.42-.53l10.24-12.03c.44-.52 10.39-12.62 6.8-29.47-6.79-1.05-29.8-2.65-50.15 18.62l-4.06 4.25a.62.62 0 01-1.06-.37l-1.7-16.83c-10.16 4.35-37.01 19.38-40.98 57.9-1.41 13.7-3.63 25.48-6.66 35.49l-.02-.02-.4 1.41c-1.06 3.33-2.21 6.45-3.45 9.38a45.08 45.08 0 01-3.38 6.07c-2.23 3.34-1.23 5.57-.3 6.49 1.8 1.84 10.7 3.06 15.81-.62zM105.4 59.4c4.51-2.9 9.3 1.9 6.41 6.42-.19.3-.45.56-.75.75-4.52 2.9-9.31-1.9-6.42-6.41.2-.3.46-.56.76-.76zm-23.79 0c4.52-2.9 9.3 1.9 6.41 6.42-.19.3-.45.56-.75.75-4.52 2.9-9.31-1.9-6.41-6.41.2-.3.45-.56.75-.76z" fill="#FF6B00"/></svg>