<?xml version="1.0" encoding="utf-8"?>
<!-- Generator: Adobe Illustrator 25.2.0, SVG Export Plug-In . SVG Version: 6.00 Build 0)  -->
<svg version="1.1" id="Layer_1" xmlns="http://www.w3.org/2000/svg" xmlns:xlink="http://www.w3.org/1999/xlink" x="0px" y="0px"
	 viewBox="0 0 390 81.7" style="enable-background:new 0 0 390 81.7;" xml:space="preserve">
<style type="text/css">
	.st0{fill:url(#SVGID_1_);}
	.st1{fill:url(#SVGID_2_);}
	.st2{fill:url(#SVGID_3_);}
	.st3{fill:url(#SVGID_4_);}
	.st4{fill:url(#SVGID_5_);}
</style>
<g>
	<g>
		<linearGradient id="SVGID_1_" gradientUnits="userSpaceOnUse" x1="196.5707" y1="68.7197" x2="196.5707" y2="14.2959">
			<stop  offset="0.1212" style="stop-color:#15B3B0"/>
			<stop  offset="0.5219" style="stop-color:#7D6596"/>
			<stop  offset="0.9374" style="stop-color:#ED127A"/>
		</linearGradient>
		<polygon class="st0" points="169.4,68.7 223.8,68.7 223.8,57.7 180.3,57.7 180.3,14.3 169.4,14.3 		"/>
		<linearGradient id="SVGID_2_" gradientUnits="userSpaceOnUse" x1="112.0242" y1="68.7197" x2="112.0242" y2="14.3837">
			<stop  offset="0.1212" style="stop-color:#15B3B0"/>
			<stop  offset="0.5219" style="stop-color:#7D6596"/>
			<stop  offset="0.9374" style="stop-color:#ED127A"/>
		</linearGradient>
		<path class="st1" d="M84.8,57.7h54.5v11H84.8V57.7z M139.3,14.4H84.8v11h54.5V14.4z M123.9,36.1H84.8v11h39.1V36.1z"/>
		<linearGradient id="SVGID_3_" gradientUnits="userSpaceOnUse" x1="31.2012" y1="68.8076" x2="31.2012" y2="3.3254">
			<stop  offset="0.1212" style="stop-color:#15B3B0"/>
			<stop  offset="0.5219" style="stop-color:#7D6596"/>
			<stop  offset="0.9374" style="stop-color:#ED127A"/>
		</linearGradient>
		<polygon class="st2" points="33.4,51.9 15.1,3.3 3.4,3.3 28,68.8 38.8,68.8 59,14.3 47.3,14.3 		"/>
		<linearGradient id="SVGID_4_" gradientUnits="userSpaceOnUse" x1="356.3526" y1="79.778" x2="356.3526" y2="14.2959">
			<stop  offset="0.1212" style="stop-color:#15B3B0"/>
			<stop  offset="0.5219" style="stop-color:#7D6596"/>
			<stop  offset="0.9374" style="stop-color:#ED127A"/>
		</linearGradient>
		<polygon class="st3" points="387.6,79.8 359.1,40.9 378.6,14.3 365,14.3 352.3,31.6 339.6,14.3 325.9,14.3 345.5,40.9 325.1,68.7 
			325.2,68.8 338.6,68.8 352.3,50.2 374,79.8 		"/>
	</g>
	<g>
		<linearGradient id="SVGID_5_" gradientUnits="userSpaceOnUse" x1="277.3585" y1="70.4102" x2="277.3585" y2="12.6974">
			<stop  offset="0.1212" style="stop-color:#15B3B0"/>
			<stop  offset="0.5219" style="stop-color:#7D6596"/>
			<stop  offset="0.9374" style="stop-color:#ED127A"/>
		</linearGradient>
		<path class="st4" d="M277.4,70.4L277.4,70.4c-16,0-28.9-12.9-28.9-28.8c0-16,12.9-28.9,28.8-28.9c16,0,28.9,12.9,28.9,28.8
			C306.2,57.5,293.3,70.4,277.4,70.4z M277.4,23.7c-9.9,0-17.9,8-17.9,17.8c0,9.9,8,17.9,17.8,17.9h0.1c9.8,0,17.8-8,17.8-17.8
			C295.2,31.7,287.2,23.7,277.4,23.7z"/>
	</g>
</g>
</svg>
